<svg xmlns="http://www.w3.org/2000/svg" xmlns:xlink="http://www.w3.org/1999/xlink" width="500" zoomAndPan="magnify" viewBox="0 0 375 374.999991" height="500" preserveAspectRatio="xMidYMid meet" version="1.0"><defs><g/><clipPath id="9d0bef5ec7"><path d="M 2.296875 2.171875 L 373 2.171875 L 373 373 L 2.296875 373 Z M 2.296875 2.171875 " clip-rule="nonzero"/></clipPath><clipPath id="42fa9f0571"><path d="M 187.628906 372.828125 C 138.148438 372.828125 91.554688 353.570312 56.59375 318.535156 C 21.558594 283.570312 2.296875 236.980469 2.296875 187.5 C 2.296875 138.019531 21.558594 91.429688 56.59375 56.464844 C 91.554688 21.429688 138.148438 2.171875 187.628906 2.171875 C 237.109375 2.171875 283.699219 21.429688 318.660156 56.464844 C 353.699219 91.503906 372.957031 138.019531 372.957031 187.5 C 372.957031 236.980469 353.699219 283.570312 318.660156 318.535156 C 283.699219 353.570312 237.109375 372.828125 187.628906 372.828125 M 187.628906 13.28125 C 141.109375 13.28125 97.332031 31.429688 64.445312 64.316406 C 31.558594 97.207031 13.410156 140.984375 13.410156 187.5 C 13.410156 234.015625 31.558594 277.792969 64.445312 310.683594 C 97.332031 343.570312 141.109375 361.71875 187.628906 361.71875 C 234.144531 361.71875 277.921875 343.570312 310.808594 310.683594 C 343.699219 277.792969 361.847656 234.015625 361.847656 187.5 C 361.847656 140.984375 343.699219 97.207031 310.808594 64.316406 C 277.921875 31.429688 234.144531 13.28125 187.628906 13.28125 " clip-rule="nonzero"/></clipPath></defs><g clip-path="url(#9d0bef5ec7)"><g clip-path="url(#42fa9f0571)"><path fill="#ffffff" d="M 2.296875 2.171875 L 372.660156 2.171875 L 372.660156 372.53125 L 2.296875 372.53125 Z M 2.296875 2.171875 " fill-opacity="1" fill-rule="nonzero"/></g></g><path fill="#ffffff" d="M 239.136719 62.25 C 238.117188 61.308594 236.53125 61.371094 235.59375 62.386719 L 215.234375 84.359375 L 213.84375 83.070312 L 234.203125 61.101562 C 235.144531 60.082031 235.085938 58.5 234.066406 57.558594 C 233.054688 56.617188 231.46875 56.675781 230.523438 57.691406 L 210.167969 79.664062 L 208.78125 78.378906 L 229.136719 56.402344 C 230.078125 55.390625 230.019531 53.804688 229.003906 52.863281 C 227.992188 51.921875 226.402344 51.984375 225.460938 53 L 205.105469 74.972656 L 203.714844 73.683594 L 224.074219 51.714844 C 225.015625 50.695312 224.953125 49.109375 223.9375 48.171875 C 222.921875 47.230469 221.339844 47.292969 220.398438 48.304688 L 200.039062 70.277344 L 200.03125 70.269531 L 199.394531 70.933594 C 198.835938 71.546875 198.324219 72.160156 197.859375 72.789062 L 197.839844 72.8125 C 196.121094 75.148438 195.136719 77.582031 195.140625 80.429688 C 195.148438 83.417969 196.199219 86.242188 198.109375 88.570312 C 196.828125 89.925781 191.101562 95.515625 184.195312 102.214844 C 175.945312 93.441406 168.65625 85.660156 167.1875 83.953125 C 169.324219 81.582031 170.578125 78.640625 170.730469 75.472656 C 170.875 72.453125 169.953125 69.832031 168.25 67.273438 L 168.253906 67.273438 L 168.226562 67.242188 C 167.769531 66.558594 167.261719 65.882812 166.695312 65.203125 L 166.058594 64.472656 L 166.046875 64.480469 L 163.546875 61.871094 C 149.796875 49.867188 142.960938 48.824219 138.957031 52.253906 C 134.269531 56.265625 132.679688 63.25 143.195312 79.359375 L 145.507812 82.445312 L 145.511719 82.449219 L 145.765625 82.753906 C 148.578125 86.164062 151.285156 88.09375 155.191406 88.585938 C 158.15625 88.953125 161.09375 88.320312 163.683594 86.808594 C 165.148438 88.578125 171.789062 97.285156 179.203125 107.046875 C 169 116.929688 157.972656 127.578125 155.109375 130.421875 C 153.101562 132.335938 151.992188 133.640625 151.992188 133.640625 C 150.042969 135.746094 150.183594 139.042969 152.304688 141.011719 C 154.425781 142.976562 157.726562 142.863281 159.679688 140.757812 C 159.679688 140.757812 161.058594 139.296875 162.273438 137.878906 L 162.277344 137.886719 C 164.058594 135.835938 173.996094 123.90625 183.425781 112.609375 C 192.269531 124.261719 201.046875 135.847656 202.71875 137.957031 L 202.722656 137.945312 C 203.9375 139.511719 205.328125 141.128906 205.328125 141.128906 C 207.292969 143.457031 210.78125 143.738281 213.128906 141.757812 C 215.472656 139.78125 215.78125 136.289062 213.816406 133.96875 C 213.816406 133.96875 212.707031 132.527344 210.671875 130.402344 C 207.976562 127.460938 198.085938 116.976562 188.390625 106.671875 C 194.703125 99.128906 200.003906 92.828125 201.289062 91.414062 C 203.660156 92.953125 206.398438 93.679688 209.207031 93.457031 C 212.90625 93.167969 215.539062 91.472656 218.339844 88.382812 L 218.59375 88.101562 L 218.601562 88.097656 L 239.269531 65.789062 C 240.207031 64.777344 240.148438 63.191406 239.136719 62.25 " fill-opacity="1" fill-rule="nonzero"/><g fill="#ffffff" fill-opacity="1"><g transform="translate(74.392781, 209.037334)"><g><path d="M 3.390625 -33.859375 L 19.390625 -33.859375 C 23.203125 -33.859375 26.226562 -33.09375 28.46875 -31.5625 C 30.707031 -30.03125 31.828125 -27.972656 31.828125 -25.390625 C 31.828125 -23.617188 31.3125 -22.0625 30.28125 -20.71875 C 29.25 -19.382812 27.832031 -18.460938 26.03125 -17.953125 C 28.15625 -17.523438 29.84375 -16.535156 31.09375 -14.984375 C 32.351562 -13.441406 32.984375 -11.578125 32.984375 -9.390625 C 32.984375 -6.515625 31.816406 -4.226562 29.484375 -2.53125 C 27.148438 -0.84375 23.984375 0 19.984375 0 L 3.390625 0 Z M 11.953125 -27.28125 L 11.953125 -20.3125 L 18.921875 -20.3125 C 20.171875 -20.3125 21.164062 -20.625 21.90625 -21.25 C 22.65625 -21.882812 23.03125 -22.75 23.03125 -23.84375 C 23.03125 -24.90625 22.65625 -25.742188 21.90625 -26.359375 C 21.164062 -26.972656 20.171875 -27.28125 18.921875 -27.28125 Z M 11.953125 -14.125 L 11.953125 -6.625 L 18.921875 -6.625 C 20.523438 -6.625 21.785156 -6.960938 22.703125 -7.640625 C 23.628906 -8.316406 24.09375 -9.253906 24.09375 -10.453125 C 24.09375 -11.578125 23.628906 -12.46875 22.703125 -13.125 C 21.785156 -13.789062 20.523438 -14.125 18.921875 -14.125 Z M 11.953125 -14.125 "/></g></g></g><g fill="#ffffff" fill-opacity="1"><g transform="translate(112.358319, 209.037334)"><g><path d="M 29.890625 -27.09375 L 12 -27.09375 L 12 -20.359375 L 28.15625 -20.359375 L 28.15625 -13.59375 L 12 -13.59375 L 12 -6.765625 L 30.421875 -6.765625 L 30.421875 0 L 3.390625 0 L 3.390625 -33.859375 L 29.890625 -33.859375 Z M 29.890625 -27.09375 "/></g></g></g><g fill="#ffffff" fill-opacity="1"><g transform="translate(148.340961, 209.037334)"><g><path d="M 19.25 -34.15625 C 21.769531 -34.15625 24.242188 -33.640625 26.671875 -32.609375 C 29.109375 -31.578125 31.179688 -30.1875 32.890625 -28.4375 L 27.90625 -22.546875 C 26.8125 -23.898438 25.5 -24.96875 23.96875 -25.75 C 22.4375 -26.539062 20.910156 -26.9375 19.390625 -26.9375 C 16.722656 -26.9375 14.484375 -25.992188 12.671875 -24.109375 C 10.867188 -22.222656 9.96875 -19.894531 9.96875 -17.125 C 9.96875 -14.289062 10.867188 -11.921875 12.671875 -10.015625 C 14.484375 -8.109375 16.722656 -7.15625 19.390625 -7.15625 C 20.816406 -7.15625 22.296875 -7.507812 23.828125 -8.21875 C 25.359375 -8.925781 26.71875 -9.894531 27.90625 -11.125 L 32.9375 -5.8125 C 31.101562 -3.9375 28.9375 -2.429688 26.4375 -1.296875 C 23.9375 -0.171875 21.445312 0.390625 18.96875 0.390625 C 13.863281 0.390625 9.617188 -1.269531 6.234375 -4.59375 C 2.847656 -7.914062 1.15625 -12.0625 1.15625 -17.03125 C 1.15625 -21.894531 2.878906 -25.960938 6.328125 -29.234375 C 9.785156 -32.515625 14.09375 -34.15625 19.25 -34.15625 Z M 19.25 -34.15625 "/></g></g></g><g fill="#ffffff" fill-opacity="1"><g transform="translate(185.194127, 209.037334)"><g><path d="M 19.453125 -34.15625 C 24.703125 -34.15625 29.066406 -32.515625 32.546875 -29.234375 C 36.035156 -25.960938 37.78125 -21.878906 37.78125 -16.984375 C 37.78125 -12.046875 36.03125 -7.914062 32.53125 -4.59375 C 29.03125 -1.269531 24.664062 0.390625 19.4375 0.390625 C 14.21875 0.390625 9.863281 -1.257812 6.375 -4.5625 C 2.894531 -7.875 1.15625 -12.015625 1.15625 -16.984375 C 1.15625 -21.910156 2.894531 -26.003906 6.375 -29.265625 C 9.863281 -32.523438 14.222656 -34.15625 19.453125 -34.15625 Z M 19.546875 -26.9375 C 16.898438 -26.9375 14.640625 -25.976562 12.765625 -24.0625 C 10.898438 -22.144531 9.96875 -19.765625 9.96875 -16.921875 C 9.96875 -14.085938 10.910156 -11.695312 12.796875 -9.75 C 14.679688 -7.800781 16.929688 -6.828125 19.546875 -6.828125 C 22.160156 -6.828125 24.375 -7.800781 26.1875 -9.75 C 28.007812 -11.695312 28.921875 -14.085938 28.921875 -16.921875 C 28.921875 -19.765625 28.007812 -22.144531 26.1875 -24.0625 C 24.375 -25.976562 22.160156 -26.9375 19.546875 -26.9375 Z M 19.546875 -26.9375 "/></g></g></g><g fill="#ffffff" fill-opacity="1"><g transform="translate(227.512362, 209.037334)"><g><path d="M 3.390625 -33.859375 L 17.953125 -33.859375 C 23.265625 -33.859375 27.585938 -32.296875 30.921875 -29.171875 C 34.265625 -26.046875 35.9375 -21.96875 35.9375 -16.9375 C 35.9375 -11.9375 34.242188 -7.863281 30.859375 -4.71875 C 27.472656 -1.570312 23.054688 0 17.609375 0 L 3.390625 0 Z M 12 -27 L 12 -6.875 L 18.140625 -6.875 C 20.785156 -6.875 22.953125 -7.800781 24.640625 -9.65625 C 26.335938 -11.507812 27.1875 -13.914062 27.1875 -16.875 C 27.1875 -19.84375 26.296875 -22.269531 24.515625 -24.15625 C 22.742188 -26.050781 20.488281 -27 17.75 -27 Z M 12 -27 "/></g></g></g><g fill="#ffffff" fill-opacity="1"><g transform="translate(267.992789, 209.037334)"><g><path d="M 29.890625 -27.09375 L 12 -27.09375 L 12 -20.359375 L 28.15625 -20.359375 L 28.15625 -13.59375 L 12 -13.59375 L 12 -6.765625 L 30.421875 -6.765625 L 30.421875 0 L 3.390625 0 L 3.390625 -33.859375 L 29.890625 -33.859375 Z M 29.890625 -27.09375 "/></g></g></g><g fill="#ffffff" fill-opacity="1"><g transform="translate(95.556842, 265.287331)"><g><path d="M 29.265625 -26.9375 L 19.0625 -26.9375 L 19.0625 0 L 10.453125 0 L 10.453125 -26.9375 L 0.34375 -26.9375 L 0.34375 -33.90625 L 29.265625 -33.90625 Z M 29.265625 -26.9375 "/></g></g></g><g fill="#ffffff" fill-opacity="1"><g transform="translate(128.492599, 265.287331)"><g><path d="M 25.875 -6.234375 L 11.078125 -6.234375 L 8.609375 0 L -0.234375 0 L 14.375 -33.859375 L 23.21875 -33.859375 L 37.484375 0 L 28.296875 0 Z M 23.359375 -12.765625 L 18.53125 -25.296875 L 13.59375 -12.765625 Z M 23.359375 -12.765625 "/></g></g></g><g fill="#ffffff" fill-opacity="1"><g transform="translate(169.11811, 265.287331)"><g><path d="M 19.25 -34.15625 C 21.769531 -34.15625 24.242188 -33.640625 26.671875 -32.609375 C 29.109375 -31.578125 31.179688 -30.1875 32.890625 -28.4375 L 27.90625 -22.546875 C 26.8125 -23.898438 25.5 -24.96875 23.96875 -25.75 C 22.4375 -26.539062 20.910156 -26.9375 19.390625 -26.9375 C 16.722656 -26.9375 14.484375 -25.992188 12.671875 -24.109375 C 10.867188 -22.222656 9.96875 -19.894531 9.96875 -17.125 C 9.96875 -14.289062 10.867188 -11.921875 12.671875 -10.015625 C 14.484375 -8.109375 16.722656 -7.15625 19.390625 -7.15625 C 20.816406 -7.15625 22.296875 -7.507812 23.828125 -8.21875 C 25.359375 -8.925781 26.71875 -9.894531 27.90625 -11.125 L 32.9375 -5.8125 C 31.101562 -3.9375 28.9375 -2.429688 26.4375 -1.296875 C 23.9375 -0.171875 21.445312 0.390625 18.96875 0.390625 C 13.863281 0.390625 9.617188 -1.269531 6.234375 -4.59375 C 2.847656 -7.914062 1.15625 -12.0625 1.15625 -17.03125 C 1.15625 -21.894531 2.878906 -25.960938 6.328125 -29.234375 C 9.785156 -32.515625 14.09375 -34.15625 19.25 -34.15625 Z M 19.25 -34.15625 "/></g></g></g><g fill="#ffffff" fill-opacity="1"><g transform="translate(205.971287, 265.287331)"><g><path d="M 19.453125 -34.15625 C 24.703125 -34.15625 29.066406 -32.515625 32.546875 -29.234375 C 36.035156 -25.960938 37.78125 -21.878906 37.78125 -16.984375 C 37.78125 -12.046875 36.03125 -7.914062 32.53125 -4.59375 C 29.03125 -1.269531 24.664062 0.390625 19.4375 0.390625 C 14.21875 0.390625 9.863281 -1.257812 6.375 -4.5625 C 2.894531 -7.875 1.15625 -12.015625 1.15625 -16.984375 C 1.15625 -21.910156 2.894531 -26.003906 6.375 -29.265625 C 9.863281 -32.523438 14.222656 -34.15625 19.453125 -34.15625 Z M 19.546875 -26.9375 C 16.898438 -26.9375 14.640625 -25.976562 12.765625 -24.0625 C 10.898438 -22.144531 9.96875 -19.765625 9.96875 -16.921875 C 9.96875 -14.085938 10.910156 -11.695312 12.796875 -9.75 C 14.679688 -7.800781 16.929688 -6.828125 19.546875 -6.828125 C 22.160156 -6.828125 24.375 -7.800781 26.1875 -9.75 C 28.007812 -11.695312 28.921875 -14.085938 28.921875 -16.921875 C 28.921875 -19.765625 28.007812 -22.144531 26.1875 -24.0625 C 24.375 -25.976562 22.160156 -26.9375 19.546875 -26.9375 Z M 19.546875 -26.9375 "/></g></g></g><g fill="#ffffff" fill-opacity="1"><g transform="translate(248.289521, 265.287331)"><g><path d="M 16.40625 -34.25 C 21.46875 -34.25 25.914062 -32.988281 29.75 -30.46875 L 26.515625 -23.75 C 24.734375 -24.78125 22.828125 -25.625 20.796875 -26.28125 C 18.765625 -26.945312 17.054688 -27.28125 15.671875 -27.28125 C 13.191406 -27.28125 11.953125 -26.457031 11.953125 -24.8125 C 11.953125 -23.75 12.5625 -22.894531 13.78125 -22.25 C 15.007812 -21.601562 16.5 -21.046875 18.25 -20.578125 C 20.007812 -20.109375 21.769531 -19.546875 23.53125 -18.890625 C 25.289062 -18.234375 26.78125 -17.160156 28 -15.671875 C 29.226562 -14.191406 29.84375 -12.320312 29.84375 -10.0625 C 29.84375 -6.800781 28.566406 -4.257812 26.015625 -2.4375 C 23.472656 -0.613281 20.234375 0.296875 16.296875 0.296875 C 13.492188 0.296875 10.722656 -0.1875 7.984375 -1.15625 C 5.242188 -2.125 2.859375 -3.445312 0.828125 -5.125 L 4.15625 -11.75 C 5.863281 -10.269531 7.878906 -9.050781 10.203125 -8.09375 C 12.523438 -7.144531 14.59375 -6.671875 16.40625 -6.671875 C 17.789062 -6.671875 18.867188 -6.921875 19.640625 -7.421875 C 20.410156 -7.921875 20.796875 -8.65625 20.796875 -9.625 C 20.796875 -10.5625 20.351562 -11.34375 19.46875 -11.96875 C 18.582031 -12.601562 17.476562 -13.070312 16.15625 -13.375 C 14.832031 -13.675781 13.394531 -14.085938 11.84375 -14.609375 C 10.300781 -15.128906 8.867188 -15.691406 7.546875 -16.296875 C 6.222656 -16.910156 5.117188 -17.882812 4.234375 -19.21875 C 3.347656 -20.5625 2.90625 -22.171875 2.90625 -24.046875 C 2.90625 -27.140625 4.132812 -29.613281 6.59375 -31.46875 C 9.0625 -33.320312 12.332031 -34.25 16.40625 -34.25 Z M 16.40625 -34.25 "/></g></g></g><g fill="#ffffff" fill-opacity="1"><g transform="translate(117.925485, 325.448563)"><g><path d="M 1.84375 -14.015625 L 7.59375 -14.015625 C 9.6875 -14.015625 11.414062 -13.351562 12.78125 -12.03125 C 14.144531 -10.707031 14.828125 -9.03125 14.828125 -7 C 14.828125 -4.976562 14.140625 -3.304688 12.765625 -1.984375 C 11.390625 -0.660156 9.644531 0 7.53125 0 L 1.84375 0 Z M 4.203125 -11.890625 L 4.203125 -2.125 L 7.640625 -2.125 C 9.015625 -2.125 10.160156 -2.578125 11.078125 -3.484375 C 11.992188 -4.398438 12.453125 -5.566406 12.453125 -6.984375 C 12.453125 -8.398438 11.976562 -9.570312 11.03125 -10.5 C 10.09375 -11.425781 8.929688 -11.890625 7.546875 -11.890625 Z M 4.203125 -11.890625 "/></g></g></g><g fill="#ffffff" fill-opacity="1"><g transform="translate(134.829541, 325.448563)"><g><path d="M 11.84375 -11.890625 L 4.203125 -11.890625 L 4.203125 -8.109375 L 11.046875 -8.109375 L 11.046875 -5.984375 L 4.203125 -5.984375 L 4.203125 -2.125 L 12.09375 -2.125 L 12.09375 0 L 1.84375 0 L 1.84375 -14.015625 L 11.84375 -14.015625 Z M 11.84375 -11.890625 "/></g></g></g><g fill="#ffffff" fill-opacity="1"><g transform="translate(149.353134, 325.448563)"><g><path d="M 1.84375 -14.015625 L 7.421875 -14.015625 C 9.179688 -14.015625 10.546875 -13.597656 11.515625 -12.765625 C 12.484375 -11.929688 12.96875 -10.753906 12.96875 -9.234375 C 12.96875 -7.640625 12.484375 -6.40625 11.515625 -5.53125 C 10.546875 -4.65625 9.179688 -4.21875 7.421875 -4.21875 L 4.203125 -4.21875 L 4.203125 0 L 1.84375 0 Z M 4.203125 -11.890625 L 4.203125 -6.34375 L 7.328125 -6.34375 C 9.578125 -6.34375 10.703125 -7.285156 10.703125 -9.171875 C 10.703125 -10.984375 9.578125 -11.890625 7.328125 -11.890625 Z M 4.203125 -11.890625 "/></g></g></g><g fill="#ffffff" fill-opacity="1"><g transform="translate(164.216788, 325.448563)"><g><path d="M 13.75 -14.015625 L 13.75 -5.796875 C 13.75 -3.972656 13.207031 -2.535156 12.125 -1.484375 C 11.050781 -0.429688 9.566406 0.09375 7.671875 0.09375 C 5.773438 0.09375 4.28125 -0.429688 3.1875 -1.484375 C 2.101562 -2.535156 1.5625 -3.972656 1.5625 -5.796875 L 1.5625 -14.015625 L 3.921875 -14.015625 L 3.921875 -5.796875 C 3.921875 -4.628906 4.253906 -3.707031 4.921875 -3.03125 C 5.597656 -2.351562 6.519531 -2.015625 7.6875 -2.015625 C 8.832031 -2.015625 9.734375 -2.347656 10.390625 -3.015625 C 11.054688 -3.679688 11.390625 -4.609375 11.390625 -5.796875 L 11.390625 -14.015625 Z M 13.75 -14.015625 "/></g></g></g><g fill="#ffffff" fill-opacity="1"><g transform="translate(180.900796, 325.448563)"><g><path d="M 4.203125 0 L 1.84375 0 L 1.84375 -14.015625 L 4.203125 -14.015625 Z M 4.203125 0 "/></g></g></g><g fill="#ffffff" fill-opacity="1"><g transform="translate(188.343003, 325.448563)"><g><path d="M 6.4375 -14.109375 C 8.257812 -14.109375 9.894531 -13.628906 11.34375 -12.671875 L 10.375 -10.59375 C 8.9375 -11.457031 7.566406 -11.890625 6.265625 -11.890625 C 5.554688 -11.890625 5 -11.757812 4.59375 -11.5 C 4.1875 -11.25 3.984375 -10.890625 3.984375 -10.421875 C 3.984375 -9.960938 4.171875 -9.566406 4.546875 -9.234375 C 4.921875 -8.910156 5.382812 -8.671875 5.9375 -8.515625 C 6.5 -8.359375 7.109375 -8.164062 7.765625 -7.9375 C 8.421875 -7.707031 9.023438 -7.460938 9.578125 -7.203125 C 10.140625 -6.941406 10.601562 -6.53125 10.96875 -5.96875 C 11.34375 -5.414062 11.53125 -4.75 11.53125 -3.96875 C 11.53125 -2.738281 11.039062 -1.753906 10.0625 -1.015625 C 9.082031 -0.285156 7.8125 0.078125 6.25 0.078125 C 5.175781 0.078125 4.140625 -0.117188 3.140625 -0.515625 C 2.140625 -0.921875 1.265625 -1.460938 0.515625 -2.140625 L 1.546875 -4.1875 C 2.253906 -3.53125 3.03125 -3.023438 3.875 -2.671875 C 4.71875 -2.316406 5.519531 -2.140625 6.28125 -2.140625 C 7.113281 -2.140625 7.757812 -2.289062 8.21875 -2.59375 C 8.675781 -2.894531 8.90625 -3.3125 8.90625 -3.84375 C 8.90625 -4.320312 8.71875 -4.722656 8.34375 -5.046875 C 7.96875 -5.378906 7.5 -5.617188 6.9375 -5.765625 C 6.382812 -5.921875 5.78125 -6.109375 5.125 -6.328125 C 4.46875 -6.554688 3.859375 -6.789062 3.296875 -7.03125 C 2.742188 -7.28125 2.28125 -7.675781 1.90625 -8.21875 C 1.53125 -8.769531 1.34375 -9.429688 1.34375 -10.203125 C 1.34375 -11.390625 1.804688 -12.335938 2.734375 -13.046875 C 3.671875 -13.753906 4.90625 -14.109375 6.4375 -14.109375 Z M 6.4375 -14.109375 "/></g></g></g><g fill="#ffffff" fill-opacity="1"><g transform="translate(202.186463, 325.448563)"><g/></g></g><g fill="#ffffff" fill-opacity="1"><g transform="translate(208.748493, 325.448563)"><g><path d="M 5.359375 0 L 3 0 L 3 -11.90625 L 0.265625 -11.90625 L 0.265625 -14.015625 L 5.359375 -14.015625 Z M 5.359375 0 "/></g></g></g><g fill="#ffffff" fill-opacity="1"><g transform="translate(217.891029, 325.448563)"><g><path d="M 5.421875 0.09375 C 3.890625 0.09375 2.492188 -0.253906 1.234375 -0.953125 L 2.15625 -2.734375 C 3.0625 -2.148438 4.097656 -1.859375 5.265625 -1.859375 C 6.585938 -1.859375 7.578125 -2.3125 8.234375 -3.21875 C 8.898438 -4.125 9.210938 -5.359375 9.171875 -6.921875 C 8.421875 -5.597656 7.144531 -4.9375 5.34375 -4.9375 C 3.945312 -4.9375 2.847656 -5.335938 2.046875 -6.140625 C 1.242188 -6.953125 0.84375 -8.039062 0.84375 -9.40625 C 0.84375 -10.84375 1.285156 -11.984375 2.171875 -12.828125 C 3.066406 -13.679688 4.265625 -14.109375 5.765625 -14.109375 C 7.535156 -14.109375 8.925781 -13.507812 9.9375 -12.3125 C 10.957031 -11.113281 11.46875 -9.4375 11.46875 -7.28125 C 11.46875 -5.039062 10.921875 -3.25 9.828125 -1.90625 C 8.734375 -0.570312 7.265625 0.09375 5.421875 0.09375 Z M 5.78125 -6.8125 C 6.707031 -6.8125 7.441406 -7.066406 7.984375 -7.578125 C 8.535156 -8.085938 8.800781 -8.71875 8.78125 -9.46875 C 8.800781 -10.144531 8.5625 -10.742188 8.0625 -11.265625 C 7.5625 -11.796875 6.835938 -12.0625 5.890625 -12.0625 C 5.015625 -12.0625 4.320312 -11.820312 3.8125 -11.34375 C 3.300781 -10.875 3.046875 -10.222656 3.046875 -9.390625 C 3.046875 -8.585938 3.285156 -7.957031 3.765625 -7.5 C 4.253906 -7.039062 4.925781 -6.8125 5.78125 -6.8125 Z M 5.78125 -6.8125 "/></g></g></g><g fill="#ffffff" fill-opacity="1"><g transform="translate(231.594458, 325.448563)"><g><path d="M 5.421875 0.09375 C 3.890625 0.09375 2.492188 -0.253906 1.234375 -0.953125 L 2.15625 -2.734375 C 3.0625 -2.148438 4.097656 -1.859375 5.265625 -1.859375 C 6.585938 -1.859375 7.578125 -2.3125 8.234375 -3.21875 C 8.898438 -4.125 9.210938 -5.359375 9.171875 -6.921875 C 8.421875 -5.597656 7.144531 -4.9375 5.34375 -4.9375 C 3.945312 -4.9375 2.847656 -5.335938 2.046875 -6.140625 C 1.242188 -6.953125 0.84375 -8.039062 0.84375 -9.40625 C 0.84375 -10.84375 1.285156 -11.984375 2.171875 -12.828125 C 3.066406 -13.679688 4.265625 -14.109375 5.765625 -14.109375 C 7.535156 -14.109375 8.925781 -13.507812 9.9375 -12.3125 C 10.957031 -11.113281 11.46875 -9.4375 11.46875 -7.28125 C 11.46875 -5.039062 10.921875 -3.25 9.828125 -1.90625 C 8.734375 -0.570312 7.265625 0.09375 5.421875 0.09375 Z M 5.78125 -6.8125 C 6.707031 -6.8125 7.441406 -7.066406 7.984375 -7.578125 C 8.535156 -8.085938 8.800781 -8.71875 8.78125 -9.46875 C 8.800781 -10.144531 8.5625 -10.742188 8.0625 -11.265625 C 7.5625 -11.796875 6.835938 -12.0625 5.890625 -12.0625 C 5.015625 -12.0625 4.320312 -11.820312 3.8125 -11.34375 C 3.300781 -10.875 3.046875 -10.222656 3.046875 -9.390625 C 3.046875 -8.585938 3.285156 -7.957031 3.765625 -7.5 C 4.253906 -7.039062 4.925781 -6.8125 5.78125 -6.8125 Z M 5.78125 -6.8125 "/></g></g></g><g fill="#ffffff" fill-opacity="1"><g transform="translate(245.297887, 325.448563)"><g><path d="M 5.765625 -14.109375 C 7.097656 -14.109375 8.175781 -13.785156 9 -13.140625 C 9.820312 -12.503906 10.234375 -11.65625 10.234375 -10.59375 C 10.234375 -9.363281 9.378906 -7.828125 7.671875 -5.984375 L 4.015625 -2.125 L 10.875 -2.125 L 10.875 0 L 0.90625 0 L 0.90625 -1.71875 L 6.0625 -7.265625 C 7.195312 -8.421875 7.765625 -9.414062 7.765625 -10.25 C 7.765625 -10.8125 7.554688 -11.25 7.140625 -11.5625 C 6.734375 -11.882812 6.160156 -12.046875 5.421875 -12.046875 C 4.148438 -12.046875 2.875 -11.457031 1.59375 -10.28125 L 0.65625 -12.109375 C 2.300781 -13.441406 4.003906 -14.109375 5.765625 -14.109375 Z M 5.765625 -14.109375 "/></g></g></g></svg>