<svg xmlns="http://www.w3.org/2000/svg" xmlns:xlink="http://www.w3.org/1999/xlink" width="500" zoomAndPan="magnify" viewBox="0 0 375 374.999991" height="500" preserveAspectRatio="xMidYMid meet" version="1.0"><defs><g/><clipPath id="ec50c7b47f"><path d="M 0 0 L 375 0 L 375 302.753906 L 0 302.753906 Z M 0 0 " clip-rule="nonzero"/></clipPath><clipPath id="fa6dad3196"><path d="M 0 302.707031 L 375 302.707031 L 375 375 L 0 375 Z M 0 302.707031 " clip-rule="nonzero"/></clipPath><clipPath id="e25c495e93"><path d="M 238 50 L 335 50 L 335 147 L 238 147 Z M 238 50 " clip-rule="nonzero"/></clipPath><clipPath id="7f86355a3d"><path d="M 257.132812 37.730469 L 347.722656 69.503906 L 315.945312 160.09375 L 225.355469 128.320312 Z M 257.132812 37.730469 " clip-rule="nonzero"/></clipPath><clipPath id="39802a5367"><path d="M 257.132812 37.730469 L 347.722656 69.503906 L 315.945312 160.09375 L 225.355469 128.320312 Z M 257.132812 37.730469 " clip-rule="nonzero"/></clipPath><clipPath id="95953b7e2e"><path d="M 257.152344 37.738281 L 347.878906 69.558594 L 316.023438 160.375 L 225.296875 128.554688 Z M 257.152344 37.738281 " clip-rule="nonzero"/></clipPath><clipPath id="dfce75ee25"><path d="M 257.152344 37.738281 L 347.707031 69.5 L 315.933594 160.089844 L 225.378906 128.328125 Z M 257.152344 37.738281 " clip-rule="nonzero"/></clipPath><clipPath id="5a768eaa63"><path d="M 97.222656 131 L 146 131 L 146 196 L 97.222656 196 Z M 97.222656 131 " clip-rule="nonzero"/></clipPath><clipPath id="9d66df114c"><path d="M 229 108.734375 L 277.972656 108.734375 L 277.972656 175 L 229 175 Z M 229 108.734375 " clip-rule="nonzero"/></clipPath><clipPath id="e86d4e06a7"><path d="M 97.222656 186 L 155 186 L 155 266.234375 L 97.222656 266.234375 Z M 97.222656 186 " clip-rule="nonzero"/></clipPath><clipPath id="5a2789784c"><path d="M 225 164 L 277.972656 164 L 277.972656 244 L 225 244 Z M 225 164 " clip-rule="nonzero"/></clipPath></defs><rect x="-37.5" width="450" fill="#ffffff" y="-37.499999" height="449.999989" fill-opacity="1"/><rect x="-37.5" width="450" fill="#ffffff" y="-37.499999" height="449.999989" fill-opacity="1"/><rect x="-37.5" width="450" fill="#ffcc00" y="-37.499999" height="449.999989" fill-opacity="1"/><g clip-path="url(#ec50c7b47f)"><path fill="#ff0000" d="M 178.429688 -39.996094 L 196.367188 -39.996094 L 187.398438 127.769531 Z M 144.617188 -39.996094 L 177.046875 128.558594 L 162.953125 -39.996094 Z M 166.699219 130.628906 L 128.652344 -39.996094 L 109.035156 -39.996094 L 109.726562 -38.121094 Z M 156.839844 134.175781 L 94.742188 -32.800781 L 92.082031 -39.996094 L 69.902344 -39.996094 L 77.296875 -25.210938 Z M 147.675781 138.90625 L 63.300781 -18.015625 L 51.472656 -39.996094 L 25.25 -39.996094 L 47.035156 -8.15625 Z M 139 144.921875 L 34.121094 1.011719 L 4.355469 -39.996094 L -28.566406 -39.996094 L 19.4375 12.9375 Z M 131.410156 152.117188 L 7.902344 23.777344 L -53.40625 -39.996094 L -56.953125 -39.996094 L -56.953125 -5.890625 L -5.105469 37.578125 Z M 124.804688 160.296875 L -15.0625 49.898438 L -56.953125 16.878906 L -56.953125 45.957031 L -26.003906 65.472656 Z M 119.386719 169.167969 L -34.285156 78.878906 L -56.953125 65.472656 L -56.953125 89.328125 L -42.957031 95.734375 Z M 115.246094 178.828125 L -49.167969 110.222656 L -56.953125 106.972656 L -56.953125 127.769531 L -55.574219 128.164062 Z M -56.953125 144.132812 L -56.953125 162.957031 L 112.386719 188.882812 Z M -56.953125 178.730469 L -56.953125 196.765625 L 111.007812 199.230469 Z M -56.953125 212.144531 L -56.953125 230.183594 L 111.007812 209.582031 Z M -56.953125 245.855469 L -56.953125 264.78125 L 112.386719 220.03125 Z M 115.246094 230.082031 L -55.574219 280.75 L -56.953125 281.140625 L -56.953125 301.941406 L -49.167969 298.6875 Z M 119.386719 239.742188 L -42.957031 313.175781 L -56.953125 319.484375 L -56.953125 343.339844 L -34.285156 329.933594 Z M 124.804688 248.613281 L -26.003906 343.4375 L -56.953125 362.855469 L -56.953125 392.03125 L -15.0625 359.011719 Z M 131.410156 256.796875 L -5.105469 371.234375 L -56.953125 414.800781 L -56.953125 448.90625 L -53.40625 448.90625 L 8.003906 385.132812 Z M 139 263.894531 L 19.4375 395.976562 L -28.664062 448.90625 L 4.15625 448.90625 L 34.023438 407.902344 Z M 47.035156 416.96875 L 25.25 448.90625 L 51.472656 448.90625 L 63.300781 426.828125 L 147.675781 269.90625 Z M 77.296875 434.121094 L 69.902344 448.90625 L 92.082031 448.90625 L 94.742188 441.710938 L 156.839844 274.734375 Z M 109.625 446.933594 L 108.9375 448.90625 L 128.550781 448.90625 L 166.699219 278.285156 Z M 162.953125 448.90625 L 176.949219 280.355469 L 144.519531 448.90625 Z M 178.429688 448.90625 L 196.367188 448.90625 L 187.398438 281.140625 Z M 211.941406 448.90625 L 230.273438 448.90625 L 197.746094 280.355469 Z M 208.097656 278.285156 L 246.144531 448.90625 L 265.859375 448.90625 L 265.167969 446.933594 Z M 217.953125 274.734375 L 280.152344 441.710938 L 282.8125 448.90625 L 304.988281 448.90625 L 297.597656 434.121094 Z M 227.316406 270.003906 L 311.691406 426.925781 L 323.519531 449.003906 L 349.742188 449.003906 L 327.957031 417.070312 Z M 235.894531 263.894531 L 340.769531 407.902344 L 370.636719 448.90625 L 403.460938 448.90625 L 355.457031 395.976562 Z M 243.382812 256.796875 L 366.988281 385.132812 L 428.398438 448.90625 L 432.046875 448.90625 L 432.046875 414.898438 L 380.097656 371.234375 Z M 250.085938 248.613281 L 389.957031 359.011719 L 431.945312 392.132812 L 431.945312 362.953125 L 400.800781 343.4375 Z M 255.507812 239.742188 L 409.078125 330.03125 L 431.945312 343.4375 L 431.945312 319.585938 L 417.851562 313.175781 Z M 259.648438 230.082031 L 424.0625 298.6875 L 431.945312 301.941406 L 431.945312 281.242188 L 430.46875 280.75 Z M 431.945312 264.78125 L 431.945312 245.855469 L 262.507812 220.03125 Z M 431.945312 230.183594 L 431.945312 212.144531 L 263.886719 209.679688 Z M 431.945312 196.667969 L 431.945312 178.628906 L 263.886719 199.132812 Z M 431.945312 162.957031 L 431.945312 144.132812 L 262.507812 188.882812 Z M 259.648438 178.828125 L 430.46875 128.164062 L 431.945312 127.671875 L 431.945312 106.972656 L 424.0625 110.222656 Z M 255.507812 169.167969 L 417.851562 95.734375 L 431.945312 89.328125 L 431.945312 65.375 L 409.078125 78.878906 Z M 250.085938 160.296875 L 400.898438 65.472656 L 431.945312 45.859375 L 431.945312 16.78125 L 389.957031 49.898438 Z M 428.300781 -39.996094 L 366.890625 23.777344 L 243.382812 152.117188 L 380 37.578125 L 431.945312 -5.988281 L 431.945312 -39.996094 Z M 235.894531 144.921875 L 355.457031 12.9375 L 403.460938 -39.996094 L 370.636719 -39.996094 L 340.769531 1.011719 Z M 327.859375 -8.15625 L 349.640625 -39.996094 L 323.421875 -39.996094 L 311.59375 -18.015625 L 227.21875 138.90625 Z M 297.597656 -25.210938 L 304.988281 -39.996094 L 282.8125 -39.996094 L 280.152344 -32.800781 L 217.953125 134.175781 Z M 265.265625 -38.121094 L 265.957031 -39.996094 L 246.242188 -39.996094 L 208.097656 130.628906 Z M 211.941406 -39.996094 L 197.847656 128.558594 L 230.375 -39.996094 Z M 211.941406 -39.996094 " fill-opacity="1" fill-rule="nonzero"/></g><g clip-path="url(#fa6dad3196)"><path fill="#ff0000" d="M 178.429688 -40.1875 L 196.367188 -40.1875 L 187.398438 127.578125 Z M 144.617188 -40.1875 L 177.046875 128.363281 L 162.953125 -40.1875 Z M 166.699219 130.433594 L 128.652344 -40.1875 L 109.035156 -40.1875 L 109.726562 -38.316406 Z M 156.839844 133.984375 L 94.742188 -32.992188 L 92.082031 -40.1875 L 69.902344 -40.1875 L 77.296875 -25.402344 Z M 147.675781 138.714844 L 63.300781 -18.207031 L 51.472656 -40.1875 L 25.25 -40.1875 L 47.035156 -8.351562 Z M 139 144.726562 L 34.121094 0.816406 L 4.355469 -40.1875 L -28.566406 -40.1875 L 19.4375 12.742188 Z M 131.410156 151.921875 L 7.902344 23.585938 L -53.40625 -40.1875 L -56.953125 -40.1875 L -56.953125 -6.082031 L -5.105469 37.386719 Z M 124.804688 160.105469 L -15.0625 49.707031 L -56.953125 16.6875 L -56.953125 45.765625 L -26.003906 65.28125 Z M 119.386719 168.976562 L -34.285156 78.6875 L -56.953125 65.28125 L -56.953125 89.132812 L -42.957031 95.542969 Z M 115.246094 178.636719 L -49.167969 110.03125 L -56.953125 106.777344 L -56.953125 127.578125 L -55.574219 127.972656 Z M -56.953125 143.9375 L -56.953125 162.765625 L 112.386719 188.6875 Z M -56.953125 178.535156 L -56.953125 196.574219 L 111.007812 199.039062 Z M -56.953125 211.953125 L -56.953125 229.988281 L 111.007812 209.390625 Z M -56.953125 245.660156 L -56.953125 264.585938 L 112.386719 219.835938 Z M 115.246094 229.890625 L -55.574219 280.554688 L -56.953125 280.949219 L -56.953125 301.746094 L -49.167969 298.496094 Z M 119.386719 239.550781 L -42.957031 312.984375 L -56.953125 319.292969 L -56.953125 343.148438 L -34.285156 329.742188 Z M 124.804688 248.421875 L -26.003906 343.246094 L -56.953125 362.664062 L -56.953125 391.839844 L -15.0625 358.820312 Z M 131.410156 256.601562 L -5.105469 371.042969 L -56.953125 414.609375 L -56.953125 448.714844 L -53.40625 448.714844 L 8.003906 384.941406 Z M 139 263.699219 L 19.4375 395.78125 L -28.664062 448.714844 L 4.15625 448.714844 L 34.023438 407.710938 Z M 47.035156 416.777344 L 25.25 448.714844 L 51.472656 448.714844 L 63.300781 426.632812 L 147.675781 269.710938 Z M 77.296875 433.929688 L 69.902344 448.714844 L 92.082031 448.714844 L 94.742188 441.519531 L 156.839844 274.542969 Z M 109.625 446.742188 L 108.9375 448.714844 L 128.550781 448.714844 L 166.699219 278.089844 Z M 162.953125 448.714844 L 176.949219 280.160156 L 144.519531 448.714844 Z M 178.429688 448.714844 L 196.367188 448.714844 L 187.398438 280.949219 Z M 211.941406 448.714844 L 230.273438 448.714844 L 197.746094 280.160156 Z M 208.097656 278.089844 L 246.144531 448.714844 L 265.859375 448.714844 L 265.167969 446.742188 Z M 217.953125 274.542969 L 280.152344 441.519531 L 282.8125 448.714844 L 304.988281 448.714844 L 297.597656 433.929688 Z M 227.316406 269.8125 L 311.691406 426.734375 L 323.519531 448.8125 L 349.742188 448.8125 L 327.957031 416.875 Z M 235.894531 263.699219 L 340.769531 407.710938 L 370.636719 448.714844 L 403.460938 448.714844 L 355.457031 395.78125 Z M 243.382812 256.601562 L 366.988281 384.941406 L 428.398438 448.714844 L 432.046875 448.714844 L 432.046875 414.707031 L 380.097656 371.042969 Z M 250.085938 248.421875 L 389.957031 358.820312 L 431.945312 391.9375 L 431.945312 362.761719 L 400.800781 343.246094 Z M 255.507812 239.550781 L 409.078125 329.839844 L 431.945312 343.246094 L 431.945312 319.390625 L 417.851562 312.984375 Z M 259.648438 229.890625 L 424.0625 298.496094 L 431.945312 301.746094 L 431.945312 281.046875 L 430.46875 280.554688 Z M 431.945312 264.585938 L 431.945312 245.660156 L 262.507812 219.835938 Z M 431.945312 229.988281 L 431.945312 211.953125 L 263.886719 209.488281 Z M 431.945312 196.476562 L 431.945312 178.4375 L 263.886719 198.941406 Z M 431.945312 162.765625 L 431.945312 143.9375 L 262.507812 188.6875 Z M 259.648438 178.636719 L 430.46875 127.972656 L 431.945312 127.476562 L 431.945312 106.777344 L 424.0625 110.03125 Z M 255.507812 168.976562 L 417.851562 95.542969 L 431.945312 89.132812 L 431.945312 65.183594 L 409.078125 78.6875 Z M 250.085938 160.105469 L 400.898438 65.28125 L 431.945312 45.664062 L 431.945312 16.589844 L 389.957031 49.707031 Z M 428.300781 -40.1875 L 366.890625 23.585938 L 243.382812 151.921875 L 380 37.386719 L 431.945312 -6.179688 L 431.945312 -40.1875 Z M 235.894531 144.726562 L 355.457031 12.742188 L 403.460938 -40.1875 L 370.636719 -40.1875 L 340.769531 0.816406 Z M 327.859375 -8.351562 L 349.640625 -40.1875 L 323.421875 -40.1875 L 311.59375 -18.207031 L 227.21875 138.714844 Z M 297.597656 -25.402344 L 304.988281 -40.1875 L 282.8125 -40.1875 L 280.152344 -32.992188 L 217.953125 133.984375 Z M 265.265625 -38.316406 L 265.957031 -40.1875 L 246.242188 -40.1875 L 208.097656 130.433594 Z M 211.941406 -40.1875 L 197.847656 128.363281 L 230.375 -40.1875 Z M 211.941406 -40.1875 " fill-opacity="1" fill-rule="nonzero"/></g><g clip-path="url(#e25c495e93)"><g clip-path="url(#7f86355a3d)"><g clip-path="url(#39802a5367)"><g clip-path="url(#95953b7e2e)"><g clip-path="url(#dfce75ee25)"><path fill="#000000" d="M 300.410156 59.382812 L 309.910156 56.242188 L 312.351562 65.957031 L 322.34375 66.078125 L 321.507812 76.070312 L 330.914062 79.441406 L 326.886719 88.625 L 334.683594 94.878906 L 327.90625 102.261719 L 333.25 110.71875 L 324.453125 115.5 L 326.769531 125.246094 L 316.90625 126.910156 L 315.9375 136.886719 L 306.082031 135.25 L 301.933594 144.378906 L 293.148438 139.617188 L 286.273438 146.910156 L 279.511719 139.542969 L 270.65625 144.207031 L 266.652344 135.03125 L 256.769531 136.5625 L 255.957031 126.574219 L 246.121094 124.804688 L 248.589844 115.082031 L 239.867188 110.203125 L 245.34375 101.804688 L 238.683594 94.347656 L 246.578125 88.183594 L 242.695312 78.957031 L 252.152344 75.6875 L 251.472656 65.691406 L 261.464844 65.675781 L 264.058594 55.992188 L 273.507812 59.234375 L 279.097656 50.910156 L 286.976562 57.058594 L 294.953125 50.996094 L 300.410156 59.382812 " fill-opacity="1" fill-rule="nonzero"/></g></g></g></g></g><g clip-path="url(#5a768eaa63)"><path fill="#000000" d="M 125.265625 195.542969 C 123.371094 195.542969 121.5625 195.269531 119.890625 194.726562 C 119.382812 194.558594 118.878906 194.367188 118.394531 194.148438 C 116.933594 193.488281 115.644531 192.597656 114.550781 191.5 L 101.746094 178.648438 L 101.75 178.640625 C 101.148438 178.035156 100.609375 177.386719 100.15625 176.707031 C 98.535156 174.28125 97.738281 171.257812 97.773438 167.714844 L 97.8125 164.542969 L 106.46875 163.023438 L 102.691406 159.226562 C 100.214844 156.757812 98.980469 153.542969 99.023438 149.671875 C 99.074219 145.109375 100.769531 141.089844 104.070312 137.734375 C 107.210938 134.53125 111.195312 132.484375 115.914062 131.652344 C 117.105469 131.441406 118.28125 131.335938 119.402344 131.335938 C 121.273438 131.335938 123.039062 131.632812 124.652344 132.214844 C 126.386719 132.847656 127.898438 133.804688 129.148438 135.058594 L 129.152344 135.050781 L 141.960938 147.90625 C 142.269531 148.214844 142.570312 148.554688 142.859375 148.914062 L 142.949219 149.035156 C 143.261719 149.4375 143.53125 149.835938 143.777344 150.25 C 143.941406 150.527344 144.101562 150.820312 144.25 151.117188 C 144.292969 151.199219 144.332031 151.285156 144.367188 151.371094 C 144.488281 151.628906 144.578125 151.824219 144.664062 152.03125 C 144.699219 152.121094 144.804688 152.40625 144.804688 152.40625 C 144.890625 152.632812 144.953125 152.800781 145.011719 152.972656 L 145.261719 153.8125 L 145.378906 154.296875 C 145.441406 154.585938 145.484375 154.78125 145.519531 154.984375 C 145.546875 155.121094 145.570312 155.269531 145.59375 155.417969 C 145.625 155.613281 145.652344 155.8125 145.679688 156.015625 C 145.699219 156.171875 145.714844 156.320312 145.726562 156.46875 C 145.75 156.683594 145.765625 156.890625 145.777344 157.097656 C 145.789062 157.296875 145.8125 157.734375 145.8125 157.734375 C 145.820312 158.007812 145.820312 158.273438 145.816406 158.542969 L 145.78125 161.703125 L 137.871094 163.09375 L 141.90625 167.148438 C 142.195312 167.433594 142.484375 167.753906 142.753906 168.085938 L 142.847656 168.183594 L 142.90625 168.277344 C 143.125 168.566406 143.34375 168.878906 143.550781 169.207031 L 143.585938 169.265625 L 143.65625 169.394531 C 143.835938 169.691406 144.015625 170.011719 144.179688 170.351562 C 144.226562 170.449219 144.277344 170.5625 144.324219 170.679688 L 144.363281 170.773438 C 144.480469 171.046875 144.589844 171.296875 144.6875 171.5625 C 144.726562 171.675781 144.769531 171.804688 144.808594 171.9375 L 144.898438 172.214844 C 144.949219 172.367188 145 172.515625 145.039062 172.675781 L 145.0625 172.757812 L 145.078125 172.851562 C 145.21875 173.410156 145.324219 173.9375 145.402344 174.476562 C 145.414062 174.566406 145.421875 174.660156 145.433594 174.753906 C 145.496094 175.289062 145.535156 175.773438 145.554688 176.273438 C 145.566406 176.351562 145.574219 176.445312 145.578125 176.542969 C 145.585938 176.789062 145.585938 177.058594 145.582031 177.328125 C 145.578125 177.851562 145.546875 178.355469 145.503906 178.847656 C 145.492188 178.980469 145.429688 179.601562 145.414062 179.707031 C 145.390625 179.894531 145.359375 180.078125 145.324219 180.257812 C 145.324219 180.257812 145.253906 180.6875 145.234375 180.785156 C 145.140625 181.253906 145.039062 181.714844 144.910156 182.164062 L 144.835938 182.402344 C 144.710938 182.820312 144.574219 183.21875 144.421875 183.613281 C 144.382812 183.722656 144.332031 183.847656 144.28125 183.976562 C 144.21875 184.140625 144.179688 184.234375 144.140625 184.324219 C 144.039062 184.5625 143.914062 184.8125 143.789062 185.0625 C 143.726562 185.195312 143.691406 185.261719 143.660156 185.328125 C 143.472656 185.683594 143.265625 186.054688 143.042969 186.414062 L 142.945312 186.558594 C 142.878906 186.664062 142.796875 186.78125 142.714844 186.898438 L 142.628906 187.023438 C 142.449219 187.289062 142.265625 187.546875 142.070312 187.800781 C 141.945312 187.960938 141.835938 188.097656 141.722656 188.230469 L 141.574219 188.417969 C 141.488281 188.523438 141.402344 188.628906 141.308594 188.734375 C 141.160156 188.90625 141.015625 189.0625 140.867188 189.21875 C 137.878906 192.335938 133.90625 194.347656 129.046875 195.207031 C 127.75 195.429688 126.480469 195.542969 125.265625 195.542969 Z M 125.265625 195.542969 " fill-opacity="1" fill-rule="nonzero"/></g><path fill="#000000" d="M 157.445312 189.855469 C 153.871094 189.855469 150.90625 188.914062 148.644531 187.058594 C 148.351562 186.824219 148.070312 186.566406 147.804688 186.300781 L 135.054688 173.507812 C 132.414062 170.90625 131.105469 167.03125 131.160156 161.96875 L 131.515625 129.496094 L 145.929688 126.960938 L 150.972656 132.019531 L 151.039062 126.058594 L 165.402344 123.539062 L 179.488281 137.671875 L 179.136719 169.558594 C 179.125 170.164062 179.089844 170.746094 179.039062 171.320312 C 179.027344 171.453125 178.96875 172.015625 178.96875 172.015625 C 178.953125 172.175781 178.9375 172.335938 178.914062 172.488281 C 178.902344 172.597656 178.835938 172.976562 178.835938 172.976562 C 178.796875 173.207031 178.761719 173.425781 178.722656 173.640625 C 178.652344 174.015625 178.578125 174.371094 178.492188 174.722656 L 178.449219 174.902344 C 178.414062 175.046875 178.382812 175.1875 178.34375 175.328125 C 178.324219 175.414062 178.308594 175.488281 178.289062 175.558594 C 178.046875 176.421875 177.742188 177.28125 177.386719 178.097656 L 177.113281 178.671875 C 176.910156 179.089844 176.730469 179.433594 176.539062 179.773438 C 176.433594 179.964844 176.164062 180.433594 176.164062 180.433594 C 176.035156 180.636719 175.910156 180.820312 175.78125 181.007812 L 175.605469 181.265625 C 175.539062 181.363281 175.46875 181.464844 175.398438 181.5625 C 175.070312 182.015625 174.738281 182.433594 174.390625 182.828125 L 174.320312 182.910156 C 174.183594 183.0625 174.03125 183.21875 173.875 183.375 L 173.558594 183.695312 C 173.425781 183.835938 173.296875 183.972656 173.15625 184.101562 C 172.976562 184.273438 172.789062 184.429688 172.597656 184.585938 L 172.273438 184.863281 C 172.128906 184.988281 171.984375 185.113281 171.835938 185.230469 C 171.640625 185.378906 171.445312 185.515625 171.246094 185.652344 L 170.863281 185.917969 C 170.71875 186.023438 170.570312 186.128906 170.417969 186.226562 C 170.1875 186.375 169.964844 186.496094 169.746094 186.621094 L 169.363281 186.839844 C 169.199219 186.941406 169.03125 187.035156 168.859375 187.125 C 168.632812 187.242188 168.378906 187.359375 168.121094 187.476562 L 167.773438 187.636719 C 167.59375 187.722656 167.414062 187.808594 167.230469 187.886719 C 166.953125 188 166.644531 188.109375 166.335938 188.21875 L 166 188.34375 C 165.839844 188.40625 165.683594 188.464844 165.519531 188.523438 C 165.082031 188.664062 164.648438 188.78125 164.214844 188.898438 L 164.066406 188.941406 C 163.941406 188.976562 163.816406 189.015625 163.6875 189.046875 C 163.074219 189.199219 162.429688 189.335938 161.769531 189.453125 C 160.242188 189.71875 158.789062 189.855469 157.445312 189.855469 Z M 157.445312 189.855469 " fill-opacity="1" fill-rule="nonzero"/><path fill="#000000" d="M 165.695312 171.566406 L 166.222656 123.394531 L 183.941406 120.277344 C 185.210938 120.054688 186.441406 119.941406 187.605469 119.941406 C 191.238281 119.941406 194.3125 121.019531 196.753906 123.148438 C 196.980469 123.351562 197.195312 123.5625 197.402344 123.773438 L 197.410156 123.765625 L 210.222656 136.621094 C 210.535156 136.941406 210.828125 137.265625 211.09375 137.597656 L 211.359375 137.828125 L 211.425781 138.019531 C 211.636719 138.300781 211.839844 138.597656 212.039062 138.914062 C 212.089844 139 212.140625 139.09375 212.191406 139.1875 C 212.402344 139.550781 212.578125 139.859375 212.734375 140.1875 C 212.789062 140.296875 212.839844 140.421875 212.894531 140.546875 L 212.988281 140.765625 C 213.09375 141.015625 213.203125 141.265625 213.296875 141.527344 C 213.351562 141.675781 213.398438 141.820312 213.441406 141.96875 L 213.546875 142.300781 C 213.597656 142.453125 213.648438 142.605469 213.691406 142.761719 L 213.804688 143.246094 C 213.910156 143.703125 213.984375 144.089844 214.050781 144.484375 L 214.09375 144.757812 C 214.164062 145.222656 214.210938 145.695312 214.246094 146.179688 L 214.277344 146.726562 C 214.285156 146.855469 214.292969 146.980469 214.296875 147.109375 C 214.304688 147.410156 214.308594 147.710938 214.304688 148.015625 C 214.300781 148.570312 214.269531 149.125 214.222656 149.671875 C 214.207031 149.839844 214.160156 150.3125 214.160156 150.3125 C 214.144531 150.472656 214.128906 150.632812 214.109375 150.789062 C 214.089844 150.914062 214.070312 151.039062 214.046875 151.164062 C 214.046875 151.164062 213.960938 151.6875 213.925781 151.878906 C 213.851562 152.269531 213.765625 152.652344 213.671875 153.023438 L 213.644531 153.140625 C 213.617188 153.257812 213.59375 153.371094 213.558594 153.484375 C 213.554688 153.511719 213.542969 153.566406 213.527344 153.625 C 213.402344 154.070312 213.25 154.523438 213.089844 154.96875 C 213.058594 155.054688 212.910156 155.4375 212.910156 155.4375 C 212.828125 155.648438 212.746094 155.859375 212.65625 156.070312 C 212.609375 156.167969 212.34375 156.730469 212.269531 156.882812 C 212.089844 157.242188 211.90625 157.582031 211.714844 157.910156 L 211.664062 158.007812 C 211.605469 158.105469 211.550781 158.207031 211.488281 158.304688 C 211.476562 158.332031 211.441406 158.394531 211.40625 158.453125 C 211.261719 158.683594 211.109375 158.898438 210.957031 159.117188 L 210.777344 159.382812 C 210.707031 159.488281 210.636719 159.59375 210.558594 159.695312 C 210.21875 160.160156 209.859375 160.605469 209.5 161.015625 L 209.414062 161.109375 C 209.296875 161.242188 209.132812 161.410156 208.964844 161.574219 L 208.632812 161.914062 C 208.507812 162.050781 208.378906 162.183594 208.242188 162.308594 C 208.042969 162.5 207.820312 162.6875 207.597656 162.875 L 207.332031 163.101562 C 207.195312 163.21875 207.0625 163.335938 206.917969 163.449219 C 206.699219 163.621094 206.464844 163.785156 206.226562 163.949219 L 205.917969 164.167969 C 205.773438 164.273438 205.628906 164.378906 205.480469 164.472656 C 205.226562 164.636719 204.96875 164.785156 204.710938 164.933594 L 204.382812 165.121094 C 204.238281 165.210938 204.09375 165.296875 203.941406 165.375 C 203.675781 165.519531 203.390625 165.652344 203.101562 165.78125 L 202.722656 165.960938 C 202.59375 166.027344 202.460938 166.089844 202.324219 166.148438 C 201.996094 166.289062 201.667969 166.40625 201.34375 166.523438 L 200.992188 166.65625 C 200.867188 166.707031 200.738281 166.753906 200.605469 166.800781 C 200.203125 166.933594 199.796875 167.042969 199.394531 167.15625 L 199.167969 167.21875 C 199.046875 167.257812 198.929688 167.292969 198.804688 167.324219 C 198.1875 167.480469 197.550781 167.613281 196.902344 167.726562 L 194.296875 168.183594 L 194.132812 183.167969 L 179.78125 185.703125 Z M 165.695312 171.566406 " fill-opacity="1" fill-rule="nonzero"/><path fill="#000000" d="M 199.902344 165.554688 L 200.429688 117.382812 L 230.644531 112.074219 L 244.730469 126.207031 L 244.589844 138.933594 L 238.3125 140.035156 L 242.132812 143.871094 L 241.996094 156.359375 L 239.539062 156.789062 L 244.398438 161.671875 L 244.261719 174.363281 L 213.984375 179.6875 Z M 199.902344 165.554688 " fill-opacity="1" fill-rule="nonzero"/><g clip-path="url(#9d66df114c)"><path fill="#000000" d="M 229.445312 160.363281 L 229.976562 112.191406 L 246.898438 109.214844 C 248.363281 108.957031 249.765625 108.828125 251.058594 108.828125 C 254.445312 108.828125 257.28125 109.699219 259.492188 111.417969 C 259.832031 111.6875 260.167969 111.984375 260.511719 112.328125 L 260.515625 112.324219 L 273.324219 125.179688 C 273.621094 125.476562 273.90625 125.796875 274.167969 126.132812 C 276.050781 128.417969 276.996094 131.671875 276.949219 135.777344 C 276.941406 136.394531 276.90625 137.03125 276.839844 137.769531 C 276.433594 142.367188 274.660156 146.40625 271.710938 149.453125 C 271.613281 149.554688 271.519531 149.648438 271.425781 149.742188 L 277.929688 164.128906 L 277.882812 168.457031 L 263.402344 171.003906 L 257.953125 165.535156 L 257.882812 171.96875 L 243.53125 174.5 Z M 229.445312 160.363281 " fill-opacity="1" fill-rule="nonzero"/></g><path fill="#ffcc00" d="M 256.300781 136.429688 L 263.199219 151.675781 L 263.171875 153.984375 L 251.25 156.085938 L 244.984375 141.640625 L 243.34375 141.933594 L 243.171875 157.503906 L 231.375 159.578125 L 231.878906 113.804688 L 247.230469 111.105469 C 248.589844 110.867188 249.867188 110.746094 251.058594 110.746094 C 254.007812 110.746094 256.441406 111.476562 258.308594 112.933594 C 260.953125 114.996094 262.269531 118.347656 262.21875 122.902344 C 262.160156 128.574219 260.167969 133.117188 256.300781 136.429688 Z M 249.402344 129.476562 C 250.0625 128.507812 250.398438 127.222656 250.414062 125.671875 C 250.457031 121.964844 249.097656 121.339844 247.957031 121.339844 C 247.613281 121.339844 247.289062 121.398438 247.027344 121.445312 L 243.5625 122.054688 L 243.457031 131.597656 L 246.777344 131.015625 C 248.390625 130.730469 249.042969 130.003906 249.402344 129.476562 " fill-opacity="1" fill-rule="nonzero"/><path fill="#ffcc00" d="M 229.992188 114.132812 L 229.878906 124.464844 L 214.023438 127.246094 L 213.949219 134.160156 L 227.394531 131.796875 L 227.285156 141.890625 L 213.835938 144.253906 L 213.746094 152.394531 L 229.660156 149.597656 L 229.546875 159.894531 L 201.832031 164.769531 L 202.332031 118.996094 Z M 229.992188 114.132812 " fill-opacity="1" fill-rule="nonzero"/><path fill="#ffcc00" d="M 195.488281 124.59375 C 198.246094 127.011719 199.625 130.558594 199.578125 135.136719 C 199.523438 139.730469 198.070312 143.6875 195.25 146.898438 C 192.4375 150.089844 188.570312 152.144531 183.761719 152.988281 L 179.585938 153.722656 L 179.421875 168.707031 L 167.625 170.78125 L 168.128906 125.007812 L 184.277344 122.167969 C 185.441406 121.960938 186.550781 121.859375 187.601562 121.859375 C 190.757812 121.859375 193.402344 122.773438 195.488281 124.59375 Z M 186.664062 141.128906 C 187.324219 140.238281 187.671875 138.941406 187.6875 137.28125 C 187.707031 135.511719 187.355469 134.175781 186.652344 133.324219 C 186.164062 132.726562 185.5625 132.433594 184.808594 132.433594 C 184.625 132.433594 184.429688 132.453125 184.226562 132.488281 L 179.808594 133.257812 L 179.699219 143.394531 L 184.050781 142.632812 C 185.230469 142.417969 186.058594 141.941406 186.664062 141.128906 " fill-opacity="1" fill-rule="nonzero"/><path fill="#ffcc00" d="M 164.746094 125.601562 L 164.40625 156.679688 C 164.308594 161.546875 162.867188 165.59375 160.136719 168.710938 C 157.40625 171.824219 153.53125 173.84375 148.621094 174.710938 C 147.203125 174.957031 145.875 175.082031 144.636719 175.082031 C 141.515625 175.082031 138.972656 174.292969 137.050781 172.71875 C 134.363281 170.523438 133.027344 166.914062 133.082031 161.988281 L 133.421875 131.105469 L 145.277344 129.019531 L 144.9375 159.933594 C 144.910156 162.496094 145.363281 163.566406 145.746094 164.007812 C 146.09375 164.410156 146.722656 164.539062 147.402344 164.539062 C 147.847656 164.539062 148.316406 164.484375 148.734375 164.410156 C 149.773438 164.226562 151.136719 163.832031 151.695312 162.988281 C 152.085938 162.40625 152.554688 161.195312 152.601562 158.714844 L 152.945312 127.671875 Z M 164.746094 125.601562 " fill-opacity="1" fill-rule="nonzero"/><path fill="#ffcc00" d="M 119.402344 133.253906 C 121.050781 133.253906 122.589844 133.511719 123.996094 134.019531 C 126.296875 134.859375 128.085938 136.320312 129.3125 138.375 C 130.519531 140.390625 131.117188 142.84375 131.085938 145.65625 L 131.066406 147.234375 L 119.292969 149.304688 L 119.3125 147.726562 C 119.328125 146.117188 119.03125 144.972656 118.429688 144.328125 C 118.160156 144.039062 117.714844 143.699219 116.800781 143.699219 C 116.5625 143.699219 116.292969 143.722656 115.988281 143.777344 C 114.921875 143.964844 114.144531 144.378906 113.601562 145.03125 C 113.042969 145.71875 112.761719 146.585938 112.75 147.679688 C 112.738281 148.4375 113.035156 149.039062 113.675781 149.574219 C 114.207031 150.03125 115.414062 150.707031 118.097656 151.382812 C 122.46875 152.195312 125.707031 153.628906 127.734375 155.644531 C 129.84375 157.738281 130.890625 160.703125 130.851562 164.457031 C 130.804688 168.617188 129.390625 172.175781 126.65625 175.046875 C 123.972656 177.851562 120.355469 179.671875 115.902344 180.457031 C 114.71875 180.667969 113.566406 180.773438 112.457031 180.773438 C 110.765625 180.773438 109.164062 180.53125 107.675781 180.046875 C 105.15625 179.226562 103.164062 177.75 101.753906 175.640625 C 100.351562 173.542969 99.660156 170.886719 99.695312 167.738281 L 99.714844 166.160156 L 111.539062 164.082031 L 111.519531 165.660156 C 111.5 167.6875 111.851562 169.125 112.527344 169.800781 C 112.957031 170.230469 113.644531 170.449219 114.566406 170.449219 C 114.996094 170.449219 115.480469 170.398438 116.011719 170.308594 C 117.832031 169.984375 118.964844 169.257812 118.996094 166.601562 C 119.007812 165.300781 118.722656 164.402344 118.148438 163.929688 C 117.648438 163.519531 116.492188 162.886719 113.835938 162.269531 C 109.3125 161.351562 106.101562 159.914062 104.054688 157.878906 C 101.957031 155.789062 100.910156 153.035156 100.945312 149.695312 C 100.992188 145.644531 102.507812 142.070312 105.441406 139.082031 C 108.304688 136.160156 111.941406 134.304688 116.25 133.546875 C 117.339844 133.351562 118.390625 133.253906 119.402344 133.253906 Z M 119.402344 133.253906 " fill-opacity="1" fill-rule="nonzero"/><g clip-path="url(#e86d4e06a7)"><path fill="#000000" d="M 97.222656 251.976562 L 97.902344 190.292969 L 116.164062 187.078125 C 117.988281 186.761719 119.757812 186.597656 121.425781 186.597656 C 126.703125 186.597656 131.160156 188.199219 134.667969 191.355469 C 134.90625 191.570312 135.140625 191.792969 135.367188 192.023438 L 135.371094 192.019531 L 148.179688 204.875 C 148.679688 205.378906 149.148438 205.910156 149.585938 206.460938 L 149.664062 206.566406 C 149.742188 206.667969 149.816406 206.78125 149.890625 206.890625 L 149.980469 207.023438 C 150.269531 207.414062 150.570312 207.832031 150.839844 208.273438 C 150.941406 208.441406 151.035156 208.613281 151.128906 208.785156 L 151.308594 209.117188 C 151.507812 209.476562 151.703125 209.832031 151.882812 210.210938 C 151.976562 210.40625 152.066406 210.625 152.15625 210.84375 L 152.246094 211.0625 C 152.414062 211.464844 152.585938 211.867188 152.734375 212.289062 C 152.820312 212.53125 152.898438 212.78125 152.972656 213.03125 L 153.128906 213.523438 C 153.191406 213.710938 153.253906 213.902344 153.308594 214.101562 C 153.339844 214.222656 153.367188 214.328125 153.386719 214.4375 L 153.566406 215.214844 C 153.699219 215.796875 153.808594 216.382812 153.90625 216.984375 C 153.90625 216.984375 153.972656 217.363281 153.988281 217.480469 C 154.09375 218.21875 154.179688 219.003906 154.238281 219.804688 L 154.285156 220.640625 C 154.304688 220.9375 154.320312 221.234375 154.332031 221.542969 C 154.339844 221.929688 154.347656 222.320312 154.347656 222.71875 L 154.246094 231.699219 C 154.238281 232.472656 154.203125 233.226562 154.15625 233.976562 L 154.128906 234.390625 C 154.078125 235.097656 154.003906 235.804688 153.914062 236.5 L 153.902344 236.652344 C 153.886719 236.738281 153.878906 236.804688 153.863281 236.871094 C 153.75 237.691406 153.628906 238.410156 153.488281 239.089844 L 153.460938 239.234375 C 153.289062 240.039062 153.117188 240.746094 152.929688 241.421875 C 152.921875 241.464844 152.90625 241.535156 152.882812 241.601562 C 152.707031 242.222656 152.511719 242.832031 152.300781 243.433594 L 152.152344 243.847656 C 151.949219 244.40625 151.734375 244.964844 151.5 245.507812 L 151.484375 245.558594 L 151.371094 245.796875 C 151.15625 246.289062 150.894531 246.835938 150.617188 247.375 L 150.429688 247.734375 C 150.140625 248.277344 149.835938 248.816406 149.507812 249.347656 C 149.496094 249.375 149.460938 249.433594 149.425781 249.488281 C 149.410156 249.515625 149.367188 249.585938 149.316406 249.652344 C 149.058594 250.058594 148.824219 250.410156 148.582031 250.757812 C 148.480469 250.90625 148.390625 251.035156 148.300781 251.15625 C 147.984375 251.597656 147.652344 252.039062 147.308594 252.46875 C 147.050781 252.785156 146.792969 253.089844 146.527344 253.390625 L 146.386719 253.601562 L 146.269531 253.683594 C 145.8125 254.1875 145.328125 254.683594 144.792969 255.199219 C 144.714844 255.273438 144.664062 255.324219 144.609375 255.375 C 144.113281 255.839844 143.554688 256.324219 142.933594 256.824219 L 142.722656 256.996094 C 142.144531 257.449219 141.542969 257.882812 140.917969 258.296875 C 140.832031 258.359375 140.722656 258.429688 140.613281 258.5 C 140.027344 258.882812 139.394531 259.257812 138.746094 259.609375 L 138.417969 259.792969 C 137.773438 260.128906 137.109375 260.453125 136.4375 260.746094 L 136.113281 260.886719 C 135.34375 261.210938 134.648438 261.476562 133.976562 261.703125 C 133.929688 261.722656 133.835938 261.753906 133.746094 261.78125 C 132.902344 262.0625 132.152344 262.28125 131.398438 262.472656 L 131.230469 262.515625 C 130.335938 262.734375 129.515625 262.914062 128.695312 263.058594 L 111.3125 266.117188 Z M 97.222656 251.976562 " fill-opacity="1" fill-rule="nonzero"/></g><path fill="#000000" d="M 141.230469 244.242188 L 141.90625 182.5625 L 180.28125 175.816406 L 190.757812 186.328125 L 194.773438 173.261719 L 210.160156 170.558594 L 224 184.453125 L 242.878906 242.984375 L 223.402344 246.414062 L 213.839844 236.816406 L 210.675781 237.371094 L 207.585938 249.191406 L 155.316406 258.375 Z M 141.230469 244.242188 " fill-opacity="1" fill-rule="nonzero"/><g clip-path="url(#5a2789784c)"><path fill="#000000" d="M 225.957031 229.347656 L 226.636719 167.667969 L 244.484375 164.53125 L 258.566406 178.667969 L 258.246094 207.96875 L 263.59375 207.027344 L 277.679688 221.164062 L 277.507812 236.898438 L 240.046875 243.484375 Z M 225.957031 229.347656 " fill-opacity="1" fill-rule="nonzero"/></g><path fill="#ff0000" d="M 133.382812 192.78125 C 137.515625 196.507812 139.613281 202.25 139.613281 209.863281 L 139.511719 218.824219 C 139.425781 226.578125 137.238281 233.167969 133 238.410156 C 128.722656 243.695312 122.851562 247.027344 115.542969 248.308594 L 99.152344 251.195312 L 99.804688 191.90625 L 116.5 188.96875 C 118.222656 188.667969 119.867188 188.515625 121.425781 188.515625 C 126.222656 188.515625 130.230469 189.945312 133.382812 192.78125 Z M 122.160156 231.699219 C 123.015625 230.453125 124.074219 227.839844 124.222656 222.429688 L 124.320312 212.871094 C 124.382812 207.011719 123.441406 204.589844 122.636719 203.578125 C 121.84375 202.589844 120.574219 202.101562 118.785156 202.101562 C 118.210938 202.101562 117.585938 202.152344 116.902344 202.25 L 114.945312 202.59375 L 114.585938 235.171875 L 115.882812 234.945312 C 118.925781 234.410156 121.03125 233.3125 122.160156 231.699219 " fill-opacity="1" fill-rule="nonzero"/><path fill="#ff0000" d="M 179.628906 177.878906 L 179.484375 191.253906 L 158.945312 194.863281 L 158.84375 203.820312 L 176.261719 200.753906 L 176.117188 213.824219 L 158.703125 216.890625 L 158.585938 227.433594 L 179.199219 223.808594 L 179.121094 230.691406 L 177.027344 237.507812 L 179.050781 237.148438 L 143.160156 243.460938 L 143.808594 184.175781 Z M 179.628906 177.878906 " fill-opacity="1" fill-rule="nonzero"/><path fill="#ff0000" d="M 209.503906 172.621094 L 227.566406 228.625 L 211.246094 231.496094 L 208.402344 220.71875 L 196.320312 222.839844 L 193.226562 234.660156 L 179.050781 237.152344 L 177.027344 237.507812 L 179.121094 230.691406 L 196.265625 174.949219 Z M 199.972656 208.847656 L 205 207.960938 L 202.59375 198.835938 L 199.972656 208.847656 " fill-opacity="1" fill-rule="nonzero"/><path fill="#ff0000" d="M 243.828125 166.597656 L 243.324219 212.539062 L 262.941406 209.089844 L 262.796875 222.429688 L 227.890625 228.566406 L 228.539062 169.28125 Z M 243.828125 166.597656 " fill-opacity="1" fill-rule="nonzero"/><path fill="#000000" d="M 224.929688 278.328125 L 225.382812 274.105469 C 225.6875 271.300781 223.726562 268.753906 220.941406 268.328125 C 218.152344 267.902344 216.195312 265.355469 216.496094 262.550781 L 217.839844 250.074219 C 218.1875 246.8125 221.113281 244.453125 224.375 244.804688 L 225.355469 244.910156 C 228.613281 245.257812 231.539062 242.898438 231.890625 239.636719 L 232.273438 236.082031 C 232.621094 232.820312 235.546875 230.460938 238.808594 230.808594 L 330.429688 240.660156 C 331.992188 240.828125 333.425781 241.609375 334.414062 242.835938 C 335.402344 244.0625 335.863281 245.632812 335.695312 247.199219 L 333.789062 264.914062 L 332.136719 280.28125 L 331.121094 289.742188 C 330.953125 291.308594 330.167969 292.746094 328.945312 293.734375 C 327.71875 294.722656 326.152344 295.183594 324.585938 295.015625 L 230.195312 284.867188 C 226.9375 284.519531 224.578125 281.589844 224.929688 278.328125 " fill-opacity="1" fill-rule="nonzero"/><g fill="#ffffff" fill-opacity="1"><g transform="translate(236.464995, 246.864888)"><g><path d="M 7.171875 -4.03125 C 7.679688 -3.851562 8.078125 -3.539062 8.359375 -3.09375 C 8.640625 -2.644531 8.75 -2.148438 8.6875 -1.609375 C 8.601562 -0.828125 8.265625 -0.242188 7.671875 0.140625 C 7.078125 0.535156 6.289062 0.679688 5.3125 0.578125 L 0.734375 0.078125 L 1.734375 -9.1875 L 6.171875 -8.703125 C 7.117188 -8.609375 7.835938 -8.320312 8.328125 -7.84375 C 8.816406 -7.363281 9.019531 -6.738281 8.9375 -5.96875 C 8.882812 -5.4375 8.691406 -5 8.359375 -4.65625 C 8.035156 -4.320312 7.640625 -4.113281 7.171875 -4.03125 Z M 3.90625 -5.21875 L 5.203125 -5.078125 C 5.847656 -5.015625 6.203125 -5.253906 6.265625 -5.796875 C 6.328125 -6.335938 6.035156 -6.640625 5.390625 -6.703125 L 4.09375 -6.84375 Z M 5.015625 -1.5625 C 5.671875 -1.488281 6.03125 -1.722656 6.09375 -2.265625 C 6.125 -2.546875 6.0625 -2.769531 5.90625 -2.9375 C 5.75 -3.113281 5.507812 -3.21875 5.1875 -3.25 L 3.71875 -3.40625 L 3.53125 -1.71875 Z M 5.015625 -1.5625 "/></g></g></g><g fill="#ffffff" fill-opacity="1"><g transform="translate(245.27571, 247.812)"><g><path d="M 4.265625 -8.921875 L 3.6875 -3.546875 C 3.632812 -3.046875 3.707031 -2.644531 3.90625 -2.34375 C 4.101562 -2.050781 4.4375 -1.878906 4.90625 -1.828125 C 5.382812 -1.773438 5.757812 -1.875 6.03125 -2.125 C 6.300781 -2.375 6.460938 -2.742188 6.515625 -3.234375 L 7.09375 -8.609375 L 9.671875 -8.328125 L 9.09375 -2.953125 C 9 -2.097656 8.738281 -1.390625 8.3125 -0.828125 C 7.882812 -0.273438 7.34375 0.113281 6.6875 0.34375 C 6.039062 0.582031 5.34375 0.664062 4.59375 0.59375 C 3.84375 0.507812 3.1875 0.285156 2.625 -0.078125 C 2.070312 -0.441406 1.660156 -0.9375 1.390625 -1.5625 C 1.117188 -2.195312 1.03125 -2.945312 1.125 -3.8125 L 1.703125 -9.1875 Z M 4.265625 -8.921875 "/></g></g></g><g fill="#ffffff" fill-opacity="1"><g transform="translate(254.624789, 248.816984)"><g><path d="M 10.15625 -8.28125 L 6.203125 -2.296875 L 5.890625 0.640625 L 3.3125 0.359375 L 3.625 -2.578125 L 1.046875 -9.265625 L 4 -8.9375 L 5.21875 -5.1875 L 7.25 -8.59375 Z M 10.15625 -8.28125 "/></g></g></g><g fill="#ffffff" fill-opacity="1"><g transform="translate(263.82943, 249.806441)"><g/></g></g><g fill="#ffffff" fill-opacity="1"><g transform="translate(266.337398, 250.076036)"><g><path d="M 0.65625 -2.015625 C 1.570312 -2.585938 2.328125 -3.082031 2.921875 -3.5 C 3.523438 -3.925781 4.035156 -4.375 4.453125 -4.84375 C 4.878906 -5.320312 5.113281 -5.789062 5.15625 -6.25 C 5.1875 -6.53125 5.144531 -6.753906 5.03125 -6.921875 C 4.925781 -7.097656 4.75 -7.203125 4.5 -7.234375 C 4.25 -7.253906 4.039062 -7.164062 3.875 -6.96875 C 3.71875 -6.769531 3.625 -6.46875 3.59375 -6.0625 L 1.09375 -6.328125 C 1.207031 -7.097656 1.445312 -7.722656 1.8125 -8.203125 C 2.175781 -8.679688 2.625 -9.007812 3.15625 -9.1875 C 3.695312 -9.375 4.28125 -9.429688 4.90625 -9.359375 C 5.976562 -9.242188 6.742188 -8.894531 7.203125 -8.3125 C 7.671875 -7.726562 7.863281 -7.007812 7.78125 -6.15625 C 7.675781 -5.25 7.273438 -4.429688 6.578125 -3.703125 C 5.890625 -2.972656 5.0625 -2.335938 4.09375 -1.796875 L 7.359375 -1.453125 L 7.140625 0.640625 L 0.453125 -0.078125 Z M 0.65625 -2.015625 "/></g></g></g><g fill="#ffffff" fill-opacity="1"><g transform="translate(273.808779, 250.879175)"><g/></g></g><g fill="#ffffff" fill-opacity="1"><g transform="translate(276.316746, 251.14877)"><g><path d="M 7.171875 -4.03125 C 7.679688 -3.851562 8.078125 -3.539062 8.359375 -3.09375 C 8.640625 -2.644531 8.75 -2.148438 8.6875 -1.609375 C 8.601562 -0.828125 8.265625 -0.242188 7.671875 0.140625 C 7.078125 0.535156 6.289062 0.679688 5.3125 0.578125 L 0.734375 0.078125 L 1.734375 -9.1875 L 6.171875 -8.703125 C 7.117188 -8.609375 7.835938 -8.320312 8.328125 -7.84375 C 8.816406 -7.363281 9.019531 -6.738281 8.9375 -5.96875 C 8.882812 -5.4375 8.691406 -5 8.359375 -4.65625 C 8.035156 -4.320312 7.640625 -4.113281 7.171875 -4.03125 Z M 3.90625 -5.21875 L 5.203125 -5.078125 C 5.847656 -5.015625 6.203125 -5.253906 6.265625 -5.796875 C 6.328125 -6.335938 6.035156 -6.640625 5.390625 -6.703125 L 4.09375 -6.84375 Z M 5.015625 -1.5625 C 5.671875 -1.488281 6.03125 -1.722656 6.09375 -2.265625 C 6.125 -2.546875 6.0625 -2.769531 5.90625 -2.9375 C 5.75 -3.113281 5.507812 -3.21875 5.1875 -3.25 L 3.71875 -3.40625 L 3.53125 -1.71875 Z M 5.015625 -1.5625 "/></g></g></g><g fill="#ffffff" fill-opacity="1"><g transform="translate(285.127461, 252.095882)"><g><path d="M 4.078125 -6.828125 L 3.921875 -5.328125 L 6.875 -5.015625 L 6.671875 -3.0625 L 3.71875 -3.375 L 3.53125 -1.703125 L 6.875 -1.34375 L 6.65625 0.71875 L 0.734375 0.078125 L 1.734375 -9.1875 L 7.65625 -8.546875 L 7.421875 -6.46875 Z M 4.078125 -6.828125 "/></g></g></g><g fill="#ffffff" fill-opacity="1"><g transform="translate(292.323097, 252.86938)"><g><path d="M 0.921875 -4.59375 C 1.015625 -5.507812 1.289062 -6.300781 1.75 -6.96875 C 2.207031 -7.644531 2.804688 -8.144531 3.546875 -8.46875 C 4.296875 -8.800781 5.125 -8.914062 6.03125 -8.8125 C 7.1875 -8.695312 8.125 -8.28125 8.84375 -7.5625 C 9.570312 -6.851562 9.992188 -5.960938 10.109375 -4.890625 L 7.34375 -5.1875 C 7.207031 -5.5625 7 -5.851562 6.71875 -6.0625 C 6.445312 -6.28125 6.117188 -6.410156 5.734375 -6.453125 C 5.140625 -6.515625 4.640625 -6.351562 4.234375 -5.96875 C 3.835938 -5.582031 3.601562 -5.03125 3.53125 -4.3125 C 3.457031 -3.601562 3.570312 -3.015625 3.875 -2.546875 C 4.1875 -2.085938 4.640625 -1.828125 5.234375 -1.765625 C 5.617188 -1.722656 5.96875 -1.773438 6.28125 -1.921875 C 6.601562 -2.078125 6.863281 -2.320312 7.0625 -2.65625 L 9.828125 -2.359375 C 9.484375 -1.316406 8.882812 -0.53125 8.03125 0 C 7.1875 0.519531 6.1875 0.722656 5.03125 0.609375 C 4.125 0.503906 3.335938 0.21875 2.671875 -0.25 C 2.015625 -0.726562 1.53125 -1.34375 1.21875 -2.09375 C 0.914062 -2.84375 0.816406 -3.675781 0.921875 -4.59375 Z M 0.921875 -4.59375 "/></g></g></g><g fill="#ffffff" fill-opacity="1"><g transform="translate(302.276188, 253.939292)"><g><path d="M 5.15625 0.65625 C 4.289062 0.5625 3.515625 0.269531 2.828125 -0.21875 C 2.148438 -0.707031 1.640625 -1.332031 1.296875 -2.09375 C 0.953125 -2.863281 0.828125 -3.703125 0.921875 -4.609375 C 1.015625 -5.523438 1.3125 -6.316406 1.8125 -6.984375 C 2.3125 -7.660156 2.945312 -8.160156 3.71875 -8.484375 C 4.5 -8.816406 5.320312 -8.9375 6.1875 -8.84375 C 7.0625 -8.75 7.835938 -8.457031 8.515625 -7.96875 C 9.191406 -7.488281 9.695312 -6.867188 10.03125 -6.109375 C 10.375 -5.347656 10.5 -4.507812 10.40625 -3.59375 C 10.3125 -2.6875 10.015625 -1.894531 9.515625 -1.21875 C 9.023438 -0.539062 8.394531 -0.0351562 7.625 0.296875 C 6.851562 0.628906 6.03125 0.75 5.15625 0.65625 Z M 5.421875 -1.734375 C 6.078125 -1.671875 6.617188 -1.832031 7.046875 -2.21875 C 7.472656 -2.613281 7.722656 -3.164062 7.796875 -3.875 C 7.878906 -4.613281 7.75 -5.210938 7.40625 -5.671875 C 7.070312 -6.140625 6.578125 -6.40625 5.921875 -6.46875 C 5.253906 -6.539062 4.710938 -6.382812 4.296875 -6 C 3.878906 -5.625 3.628906 -5.066406 3.546875 -4.328125 C 3.472656 -3.609375 3.597656 -3.015625 3.921875 -2.546875 C 4.253906 -2.078125 4.753906 -1.804688 5.421875 -1.734375 Z M 5.421875 -1.734375 "/></g></g></g><g fill="#ffffff" fill-opacity="1"><g transform="translate(312.610066, 255.050137)"><g><path d="M 5.390625 -8.796875 C 6.367188 -8.691406 7.203125 -8.40625 7.890625 -7.9375 C 8.578125 -7.46875 9.078125 -6.859375 9.390625 -6.109375 C 9.710938 -5.367188 9.828125 -4.546875 9.734375 -3.640625 C 9.640625 -2.753906 9.351562 -1.984375 8.875 -1.328125 C 8.394531 -0.671875 7.769531 -0.179688 7 0.140625 C 6.226562 0.460938 5.359375 0.570312 4.390625 0.46875 L 0.734375 0.078125 L 1.734375 -9.1875 Z M 4.4375 -1.8125 C 5.195312 -1.726562 5.8125 -1.867188 6.28125 -2.234375 C 6.757812 -2.609375 7.039062 -3.164062 7.125 -3.90625 C 7.207031 -4.675781 7.050781 -5.289062 6.65625 -5.75 C 6.269531 -6.207031 5.695312 -6.476562 4.9375 -6.5625 L 4.0625 -6.65625 L 3.5625 -1.90625 Z M 4.4375 -1.8125 "/></g></g></g><g fill="#ffffff" fill-opacity="1"><g transform="translate(322.261147, 256.087584)"><g><path d="M 4.078125 -6.828125 L 3.921875 -5.328125 L 6.875 -5.015625 L 6.671875 -3.0625 L 3.71875 -3.375 L 3.53125 -1.703125 L 6.875 -1.34375 L 6.65625 0.71875 L 0.734375 0.078125 L 1.734375 -9.1875 L 7.65625 -8.546875 L 7.421875 -6.46875 Z M 4.078125 -6.828125 "/></g></g></g><g fill="#ffffff" fill-opacity="1"><g transform="translate(222.021998, 260.857868)"><g><path d="M 8.703125 -8.4375 L 8.484375 -6.375 L 6.015625 -6.640625 L 5.234375 0.5625 L 2.671875 0.28125 L 3.453125 -6.921875 L 1 -7.1875 L 1.21875 -9.25 Z M 8.703125 -8.4375 "/></g></g></g><g fill="#ffffff" fill-opacity="1"><g transform="translate(229.952957, 261.71041)"><g><path d="M 6.75 -0.796875 L 3.46875 -1.140625 L 2.8125 0.296875 L 0.109375 0.015625 L 4.484375 -8.890625 L 7.453125 -8.578125 L 9.796875 1.046875 L 7.078125 0.765625 Z M 6.328125 -2.84375 L 5.65625 -5.953125 L 4.34375 -3.0625 Z M 6.328125 -2.84375 "/></g></g></g><g fill="#ffffff" fill-opacity="1"><g transform="translate(239.866652, 262.776087)"><g><path d="M 0.921875 -4.59375 C 1.015625 -5.507812 1.289062 -6.300781 1.75 -6.96875 C 2.207031 -7.644531 2.804688 -8.144531 3.546875 -8.46875 C 4.296875 -8.800781 5.125 -8.914062 6.03125 -8.8125 C 7.1875 -8.695312 8.125 -8.28125 8.84375 -7.5625 C 9.570312 -6.851562 9.992188 -5.960938 10.109375 -4.890625 L 7.34375 -5.1875 C 7.207031 -5.5625 7 -5.851562 6.71875 -6.0625 C 6.445312 -6.28125 6.117188 -6.410156 5.734375 -6.453125 C 5.140625 -6.515625 4.640625 -6.351562 4.234375 -5.96875 C 3.835938 -5.582031 3.601562 -5.03125 3.53125 -4.3125 C 3.457031 -3.601562 3.570312 -3.015625 3.875 -2.546875 C 4.1875 -2.085938 4.640625 -1.828125 5.234375 -1.765625 C 5.617188 -1.722656 5.96875 -1.773438 6.28125 -1.921875 C 6.601562 -2.078125 6.863281 -2.320312 7.0625 -2.65625 L 9.828125 -2.359375 C 9.484375 -1.316406 8.882812 -0.53125 8.03125 0 C 7.1875 0.519531 6.1875 0.722656 5.03125 0.609375 C 4.125 0.503906 3.335938 0.21875 2.671875 -0.25 C 2.015625 -0.726562 1.53125 -1.34375 1.21875 -2.09375 C 0.914062 -2.84375 0.816406 -3.675781 0.921875 -4.59375 Z M 0.921875 -4.59375 "/></g></g></g><g fill="#ffffff" fill-opacity="1"><g transform="translate(249.819742, 263.845999)"><g><path d="M 5.15625 0.65625 C 4.289062 0.5625 3.515625 0.269531 2.828125 -0.21875 C 2.148438 -0.707031 1.640625 -1.332031 1.296875 -2.09375 C 0.953125 -2.863281 0.828125 -3.703125 0.921875 -4.609375 C 1.015625 -5.523438 1.3125 -6.316406 1.8125 -6.984375 C 2.3125 -7.660156 2.945312 -8.160156 3.71875 -8.484375 C 4.5 -8.816406 5.320312 -8.9375 6.1875 -8.84375 C 7.0625 -8.75 7.835938 -8.457031 8.515625 -7.96875 C 9.191406 -7.488281 9.695312 -6.867188 10.03125 -6.109375 C 10.375 -5.347656 10.5 -4.507812 10.40625 -3.59375 C 10.3125 -2.6875 10.015625 -1.894531 9.515625 -1.21875 C 9.023438 -0.539062 8.394531 -0.0351562 7.625 0.296875 C 6.851562 0.628906 6.03125 0.75 5.15625 0.65625 Z M 5.421875 -1.734375 C 6.078125 -1.671875 6.617188 -1.832031 7.046875 -2.21875 C 7.472656 -2.613281 7.722656 -3.164062 7.796875 -3.875 C 7.878906 -4.613281 7.75 -5.210938 7.40625 -5.671875 C 7.070312 -6.140625 6.578125 -6.40625 5.921875 -6.46875 C 5.253906 -6.539062 4.710938 -6.382812 4.296875 -6 C 3.878906 -5.625 3.628906 -5.066406 3.546875 -4.328125 C 3.472656 -3.609375 3.597656 -3.015625 3.921875 -2.546875 C 4.253906 -2.078125 4.753906 -1.804688 5.421875 -1.734375 Z M 5.421875 -1.734375 "/></g></g></g><g fill="#ffffff" fill-opacity="1"><g transform="translate(260.153621, 264.956844)"><g><path d="M 4.203125 0.546875 C 3.128906 0.429688 2.273438 0.0820312 1.640625 -0.5 C 1.015625 -1.082031 0.726562 -1.859375 0.78125 -2.828125 L 3.515625 -2.53125 C 3.503906 -2.207031 3.570312 -1.957031 3.71875 -1.78125 C 3.875 -1.613281 4.078125 -1.519531 4.328125 -1.5 C 4.566406 -1.46875 4.769531 -1.503906 4.9375 -1.609375 C 5.113281 -1.710938 5.210938 -1.867188 5.234375 -2.078125 C 5.265625 -2.347656 5.160156 -2.570312 4.921875 -2.75 C 4.679688 -2.925781 4.289062 -3.140625 3.75 -3.390625 C 3.15625 -3.648438 2.6875 -3.894531 2.34375 -4.125 C 2 -4.351562 1.703125 -4.664062 1.453125 -5.0625 C 1.210938 -5.457031 1.125 -5.945312 1.1875 -6.53125 C 1.25 -7.125 1.453125 -7.613281 1.796875 -8 C 2.140625 -8.394531 2.585938 -8.675781 3.140625 -8.84375 C 3.691406 -9.007812 4.300781 -9.054688 4.96875 -8.984375 C 6.039062 -8.867188 6.867188 -8.519531 7.453125 -7.9375 C 8.035156 -7.363281 8.304688 -6.625 8.265625 -5.71875 L 5.46875 -6.015625 C 5.488281 -6.285156 5.425781 -6.5 5.28125 -6.65625 C 5.132812 -6.820312 4.9375 -6.914062 4.6875 -6.9375 C 4.5 -6.957031 4.332031 -6.914062 4.1875 -6.8125 C 4.050781 -6.71875 3.972656 -6.570312 3.953125 -6.375 C 3.929688 -6.195312 3.984375 -6.035156 4.109375 -5.890625 C 4.234375 -5.742188 4.390625 -5.613281 4.578125 -5.5 C 4.765625 -5.394531 5.046875 -5.25 5.421875 -5.0625 C 5.992188 -4.800781 6.457031 -4.550781 6.8125 -4.3125 C 7.164062 -4.070312 7.460938 -3.757812 7.703125 -3.375 C 7.941406 -2.988281 8.03125 -2.523438 7.96875 -1.984375 C 7.914062 -1.429688 7.726562 -0.953125 7.40625 -0.546875 C 7.082031 -0.140625 6.644531 0.160156 6.09375 0.359375 C 5.550781 0.554688 4.921875 0.617188 4.203125 0.546875 Z M 4.203125 0.546875 "/></g></g></g><g fill="#ffffff" fill-opacity="1"><g transform="translate(268.294671, 265.83197)"><g/></g></g><g fill="#ffffff" fill-opacity="1"><g transform="translate(270.802639, 266.101565)"><g><path d="M 6.75 -0.796875 L 3.46875 -1.140625 L 2.8125 0.296875 L 0.109375 0.015625 L 4.484375 -8.890625 L 7.453125 -8.578125 L 9.796875 1.046875 L 7.078125 0.765625 Z M 6.328125 -2.84375 L 5.65625 -5.953125 L 4.34375 -3.0625 Z M 6.328125 -2.84375 "/></g></g></g><g fill="#ffffff" fill-opacity="1"><g transform="translate(280.716334, 267.167242)"><g><path d="M 9.3125 1 L 6.734375 0.71875 L 3.875 -4.8125 L 3.3125 0.359375 L 0.734375 0.078125 L 1.734375 -9.1875 L 4.3125 -8.90625 L 7.171875 -3.3125 L 7.734375 -8.546875 L 10.3125 -8.265625 Z M 9.3125 1 "/></g></g></g><g fill="#ffffff" fill-opacity="1"><g transform="translate(290.761341, 268.247034)"><g><path d="M 5.390625 -8.796875 C 6.367188 -8.691406 7.203125 -8.40625 7.890625 -7.9375 C 8.578125 -7.46875 9.078125 -6.859375 9.390625 -6.109375 C 9.710938 -5.367188 9.828125 -4.546875 9.734375 -3.640625 C 9.640625 -2.753906 9.351562 -1.984375 8.875 -1.328125 C 8.394531 -0.671875 7.769531 -0.179688 7 0.140625 C 6.226562 0.460938 5.359375 0.570312 4.390625 0.46875 L 0.734375 0.078125 L 1.734375 -9.1875 Z M 4.4375 -1.8125 C 5.195312 -1.726562 5.8125 -1.867188 6.28125 -2.234375 C 6.757812 -2.609375 7.039062 -3.164062 7.125 -3.90625 C 7.207031 -4.675781 7.050781 -5.289062 6.65625 -5.75 C 6.269531 -6.207031 5.695312 -6.476562 4.9375 -6.5625 L 4.0625 -6.65625 L 3.5625 -1.90625 Z M 4.4375 -1.8125 "/></g></g></g><g fill="#ffffff" fill-opacity="1"><g transform="translate(300.412423, 269.284481)"><g/></g></g><g fill="#ffffff" fill-opacity="1"><g transform="translate(302.92039, 269.554077)"><g><path d="M 8.703125 -8.4375 L 8.484375 -6.375 L 6.015625 -6.640625 L 5.234375 0.5625 L 2.671875 0.28125 L 3.453125 -6.921875 L 1 -7.1875 L 1.21875 -9.25 Z M 8.703125 -8.4375 "/></g></g></g><g fill="#ffffff" fill-opacity="1"><g transform="translate(310.851349, 270.406619)"><g><path d="M 10.03125 -8.296875 L 9.03125 0.96875 L 6.453125 0.6875 L 6.859375 -3.03125 L 3.71875 -3.359375 L 3.3125 0.359375 L 0.734375 0.078125 L 1.734375 -9.1875 L 4.3125 -8.90625 L 3.9375 -5.421875 L 7.078125 -5.09375 L 7.453125 -8.578125 Z M 10.03125 -8.296875 "/></g></g></g><g fill="#ffffff" fill-opacity="1"><g transform="translate(320.60748, 271.455358)"><g><path d="M 4.078125 -6.828125 L 3.921875 -5.328125 L 6.875 -5.015625 L 6.671875 -3.0625 L 3.71875 -3.375 L 3.53125 -1.703125 L 6.875 -1.34375 L 6.65625 0.71875 L 0.734375 0.078125 L 1.734375 -9.1875 L 7.65625 -8.546875 L 7.421875 -6.46875 Z M 4.078125 -6.828125 "/></g></g></g><g fill="#ffffff" fill-opacity="1"><g transform="translate(230.39081, 277.303013)"><g><path d="M 8.703125 -8.4375 L 8.484375 -6.375 L 6.015625 -6.640625 L 5.234375 0.5625 L 2.671875 0.28125 L 3.453125 -6.921875 L 1 -7.1875 L 1.21875 -9.25 Z M 8.703125 -8.4375 "/></g></g></g><g fill="#ffffff" fill-opacity="1"><g transform="translate(238.321769, 278.155555)"><g><path d="M 10.03125 -8.296875 L 9.03125 0.96875 L 6.453125 0.6875 L 6.859375 -3.03125 L 3.71875 -3.359375 L 3.3125 0.359375 L 0.734375 0.078125 L 1.734375 -9.1875 L 4.3125 -8.90625 L 3.9375 -5.421875 L 7.078125 -5.09375 L 7.453125 -8.578125 Z M 10.03125 -8.296875 "/></g></g></g><g fill="#ffffff" fill-opacity="1"><g transform="translate(248.0779, 279.204295)"><g><path d="M 4.3125 -8.90625 L 3.3125 0.359375 L 0.734375 0.078125 L 1.734375 -9.1875 Z M 4.3125 -8.90625 "/></g></g></g><g fill="#ffffff" fill-opacity="1"><g transform="translate(252.122162, 279.639034)"><g><path d="M 5.421875 0.578125 L 3.96875 -3.03125 L 3.6875 -3.0625 L 3.3125 0.359375 L 0.734375 0.078125 L 1.734375 -9.1875 L 5.78125 -8.75 C 6.53125 -8.664062 7.144531 -8.46875 7.625 -8.15625 C 8.113281 -7.84375 8.46875 -7.441406 8.6875 -6.953125 C 8.90625 -6.472656 8.984375 -5.957031 8.921875 -5.40625 C 8.859375 -4.769531 8.625 -4.234375 8.21875 -3.796875 C 7.820312 -3.359375 7.285156 -3.070312 6.609375 -2.9375 L 8.296875 0.890625 Z M 3.875 -4.8125 L 5.140625 -4.671875 C 5.492188 -4.640625 5.765625 -4.695312 5.953125 -4.84375 C 6.148438 -4.988281 6.265625 -5.21875 6.296875 -5.53125 C 6.328125 -5.832031 6.257812 -6.078125 6.09375 -6.265625 C 5.9375 -6.453125 5.6875 -6.5625 5.34375 -6.59375 L 4.078125 -6.734375 Z M 3.875 -4.8125 "/></g></g></g><g fill="#ffffff" fill-opacity="1"><g transform="translate(260.801571, 280.572031)"><g><path d="M 5.390625 -8.796875 C 6.367188 -8.691406 7.203125 -8.40625 7.890625 -7.9375 C 8.578125 -7.46875 9.078125 -6.859375 9.390625 -6.109375 C 9.710938 -5.367188 9.828125 -4.546875 9.734375 -3.640625 C 9.640625 -2.753906 9.351562 -1.984375 8.875 -1.328125 C 8.394531 -0.671875 7.769531 -0.179688 7 0.140625 C 6.226562 0.460938 5.359375 0.570312 4.390625 0.46875 L 0.734375 0.078125 L 1.734375 -9.1875 Z M 4.4375 -1.8125 C 5.195312 -1.726562 5.8125 -1.867188 6.28125 -2.234375 C 6.757812 -2.609375 7.039062 -3.164062 7.125 -3.90625 C 7.207031 -4.675781 7.050781 -5.289062 6.65625 -5.75 C 6.269531 -6.207031 5.695312 -6.476562 4.9375 -6.5625 L 4.0625 -6.65625 L 3.5625 -1.90625 Z M 4.4375 -1.8125 "/></g></g></g><g fill="#ffffff" fill-opacity="1"><g transform="translate(270.452652, 281.609479)"><g/></g></g><g fill="#ffffff" fill-opacity="1"><g transform="translate(272.96062, 281.879074)"><g><path d="M 4.3125 -8.90625 L 3.3125 0.359375 L 0.734375 0.078125 L 1.734375 -9.1875 Z M 4.3125 -8.90625 "/></g></g></g><g fill="#ffffff" fill-opacity="1"><g transform="translate(277.004882, 282.313813)"><g><path d="M 4.203125 0.546875 C 3.128906 0.429688 2.273438 0.0820312 1.640625 -0.5 C 1.015625 -1.082031 0.726562 -1.859375 0.78125 -2.828125 L 3.515625 -2.53125 C 3.503906 -2.207031 3.570312 -1.957031 3.71875 -1.78125 C 3.875 -1.613281 4.078125 -1.519531 4.328125 -1.5 C 4.566406 -1.46875 4.769531 -1.503906 4.9375 -1.609375 C 5.113281 -1.710938 5.210938 -1.867188 5.234375 -2.078125 C 5.265625 -2.347656 5.160156 -2.570312 4.921875 -2.75 C 4.679688 -2.925781 4.289062 -3.140625 3.75 -3.390625 C 3.15625 -3.648438 2.6875 -3.894531 2.34375 -4.125 C 2 -4.351562 1.703125 -4.664062 1.453125 -5.0625 C 1.210938 -5.457031 1.125 -5.945312 1.1875 -6.53125 C 1.25 -7.125 1.453125 -7.613281 1.796875 -8 C 2.140625 -8.394531 2.585938 -8.675781 3.140625 -8.84375 C 3.691406 -9.007812 4.300781 -9.054688 4.96875 -8.984375 C 6.039062 -8.867188 6.867188 -8.519531 7.453125 -7.9375 C 8.035156 -7.363281 8.304688 -6.625 8.265625 -5.71875 L 5.46875 -6.015625 C 5.488281 -6.285156 5.425781 -6.5 5.28125 -6.65625 C 5.132812 -6.820312 4.9375 -6.914062 4.6875 -6.9375 C 4.5 -6.957031 4.332031 -6.914062 4.1875 -6.8125 C 4.050781 -6.71875 3.972656 -6.570312 3.953125 -6.375 C 3.929688 -6.195312 3.984375 -6.035156 4.109375 -5.890625 C 4.234375 -5.742188 4.390625 -5.613281 4.578125 -5.5 C 4.765625 -5.394531 5.046875 -5.25 5.421875 -5.0625 C 5.992188 -4.800781 6.457031 -4.550781 6.8125 -4.3125 C 7.164062 -4.070312 7.460938 -3.757812 7.703125 -3.375 C 7.941406 -2.988281 8.03125 -2.523438 7.96875 -1.984375 C 7.914062 -1.429688 7.726562 -0.953125 7.40625 -0.546875 C 7.082031 -0.140625 6.644531 0.160156 6.09375 0.359375 C 5.550781 0.554688 4.921875 0.617188 4.203125 0.546875 Z M 4.203125 0.546875 "/></g></g></g><g fill="#ffffff" fill-opacity="1"><g transform="translate(285.145933, 283.188939)"><g/></g></g><g fill="#ffffff" fill-opacity="1"><g transform="translate(287.6539, 283.458534)"><g><path d="M 8 -8.515625 L 7.78125 -6.453125 L 4.09375 -6.84375 L 3.90625 -5.21875 L 6.640625 -4.921875 L 6.4375 -2.96875 L 3.703125 -3.265625 L 3.3125 0.359375 L 0.734375 0.078125 L 1.734375 -9.1875 Z M 8 -8.515625 "/></g></g></g><g fill="#ffffff" fill-opacity="1"><g transform="translate(295.020238, 284.250382)"><g><path d="M 5.421875 0.578125 L 3.96875 -3.03125 L 3.6875 -3.0625 L 3.3125 0.359375 L 0.734375 0.078125 L 1.734375 -9.1875 L 5.78125 -8.75 C 6.53125 -8.664062 7.144531 -8.46875 7.625 -8.15625 C 8.113281 -7.84375 8.46875 -7.441406 8.6875 -6.953125 C 8.90625 -6.472656 8.984375 -5.957031 8.921875 -5.40625 C 8.859375 -4.769531 8.625 -4.234375 8.21875 -3.796875 C 7.820312 -3.359375 7.285156 -3.070312 6.609375 -2.9375 L 8.296875 0.890625 Z M 3.875 -4.8125 L 5.140625 -4.671875 C 5.492188 -4.640625 5.765625 -4.695312 5.953125 -4.84375 C 6.148438 -4.988281 6.265625 -5.21875 6.296875 -5.53125 C 6.328125 -5.832031 6.257812 -6.078125 6.09375 -6.265625 C 5.9375 -6.453125 5.6875 -6.5625 5.34375 -6.59375 L 4.078125 -6.734375 Z M 3.875 -4.8125 "/></g></g></g><g fill="#ffffff" fill-opacity="1"><g transform="translate(303.699647, 285.183379)"><g><path d="M 4.078125 -6.828125 L 3.921875 -5.328125 L 6.875 -5.015625 L 6.671875 -3.0625 L 3.71875 -3.375 L 3.53125 -1.703125 L 6.875 -1.34375 L 6.65625 0.71875 L 0.734375 0.078125 L 1.734375 -9.1875 L 7.65625 -8.546875 L 7.421875 -6.46875 Z M 4.078125 -6.828125 "/></g></g></g><g fill="#ffffff" fill-opacity="1"><g transform="translate(310.895283, 285.956877)"><g><path d="M 4.078125 -6.828125 L 3.921875 -5.328125 L 6.875 -5.015625 L 6.671875 -3.0625 L 3.71875 -3.375 L 3.53125 -1.703125 L 6.875 -1.34375 L 6.65625 0.71875 L 0.734375 0.078125 L 1.734375 -9.1875 L 7.65625 -8.546875 L 7.421875 -6.46875 Z M 4.078125 -6.828125 "/></g></g></g><g fill="#ffffff" fill-opacity="1"><g transform="translate(318.090919, 286.730375)"><g/></g></g><g fill="#ffffff" fill-opacity="1"><g transform="translate(320.598887, 286.99997)"><g><path d="M 5.21875 -9.265625 L 4.25 -3.046875 L 2.046875 -3.28125 L 2.421875 -9.5625 Z M 2.765625 0.40625 C 2.304688 0.351562 1.953125 0.191406 1.703125 -0.078125 C 1.460938 -0.359375 1.363281 -0.695312 1.40625 -1.09375 C 1.445312 -1.46875 1.617188 -1.769531 1.921875 -2 C 2.222656 -2.226562 2.601562 -2.316406 3.0625 -2.265625 C 3.507812 -2.210938 3.851562 -2.046875 4.09375 -1.765625 C 4.332031 -1.484375 4.429688 -1.15625 4.390625 -0.78125 C 4.347656 -0.394531 4.175781 -0.0859375 3.875 0.140625 C 3.582031 0.367188 3.210938 0.457031 2.765625 0.40625 Z M 2.765625 0.40625 "/></g></g></g><g fill="#ffffff" fill-opacity="1"><g transform="translate(255.02727, 104.679798)"><g><path d="M 2.046875 -12.671875 L 2.59375 -16.953125 L 9.75 -16.03125 L 7.578125 0.96875 L 2.828125 0.359375 L 4.453125 -12.359375 Z M 2.046875 -12.671875 "/></g></g></g><g fill="#ffffff" fill-opacity="1"><g transform="translate(264.024514, 105.828688)"><g><path d="M 13.546875 -4.328125 L 9.8125 -4.796875 L 9.3125 -0.9375 L 4.953125 -1.5 L 5.453125 -5.359375 L 1.6875 -5.84375 L 2.203125 -9.96875 L 5.96875 -9.484375 L 6.46875 -13.359375 L 10.828125 -12.796875 L 10.328125 -8.921875 L 14.0625 -8.453125 Z M 13.546875 -4.328125 "/></g></g></g><g fill="#ffffff" fill-opacity="1"><g transform="translate(277.717991, 107.577257)"><g><path d="M 2.046875 -12.671875 L 2.59375 -16.953125 L 9.75 -16.03125 L 7.578125 0.96875 L 2.828125 0.359375 L 4.453125 -12.359375 Z M 2.046875 -12.671875 "/></g></g></g><g fill="#ffffff" fill-opacity="1"><g transform="translate(286.715235, 108.726148)"><g><path d="M 16.046875 -11.359375 L 15.515625 -7.234375 L 2.171875 -8.9375 L 2.703125 -13.0625 Z M 15.25 -5.125 L 14.71875 -1.046875 L 1.375 -2.75 L 1.90625 -6.828125 Z M 15.25 -5.125 "/></g></g></g><g fill="#ffffff" fill-opacity="1"><g transform="translate(302.082619, 110.688464)"><g><path d="M 2.640625 -11.796875 C 2.921875 -13.523438 3.632812 -14.796875 4.78125 -15.609375 C 5.925781 -16.421875 7.410156 -16.710938 9.234375 -16.484375 C 10.429688 -16.328125 11.425781 -15.988281 12.21875 -15.46875 C 13.007812 -14.945312 13.578125 -14.304688 13.921875 -13.546875 C 14.265625 -12.796875 14.378906 -11.972656 14.265625 -11.078125 C 14.128906 -10.023438 13.765625 -9.21875 13.171875 -8.65625 C 12.578125 -8.09375 11.945312 -7.742188 11.28125 -7.609375 L 11.265625 -7.515625 C 13.046875 -6.578125 13.8125 -5.125 13.5625 -3.15625 C 13.4375 -2.175781 13.101562 -1.34375 12.5625 -0.65625 C 12.019531 0.03125 11.296875 0.523438 10.390625 0.828125 C 9.484375 1.140625 8.441406 1.222656 7.265625 1.078125 C 5.328125 0.828125 3.851562 0.160156 2.84375 -0.921875 C 1.84375 -2.015625 1.445312 -3.523438 1.65625 -5.453125 L 6.09375 -4.890625 C 5.976562 -4.273438 6.046875 -3.773438 6.296875 -3.390625 C 6.554688 -3.015625 6.976562 -2.789062 7.5625 -2.71875 C 8.007812 -2.664062 8.378906 -2.757812 8.671875 -3 C 8.960938 -3.25 9.140625 -3.601562 9.203125 -4.0625 C 9.273438 -4.65625 9.132812 -5.113281 8.78125 -5.4375 C 8.4375 -5.769531 7.84375 -5.988281 7 -6.09375 L 6.171875 -6.203125 L 6.65625 -9.90625 L 7.453125 -9.796875 C 8.023438 -9.710938 8.53125 -9.75 8.96875 -9.90625 C 9.414062 -10.0625 9.679688 -10.457031 9.765625 -11.09375 C 9.828125 -11.570312 9.753906 -11.945312 9.546875 -12.21875 C 9.347656 -12.488281 9.046875 -12.648438 8.640625 -12.703125 C 8.191406 -12.753906 7.84375 -12.632812 7.59375 -12.34375 C 7.34375 -12.050781 7.175781 -11.679688 7.09375 -11.234375 Z M 2.640625 -11.796875 "/></g></g></g><path fill="#000000" d="M 89.453125 273.667969 L 168.832031 266.261719 C 169.609375 266.1875 170.386719 266.429688 170.992188 266.929688 C 171.59375 267.429688 171.976562 268.148438 172.046875 268.925781 L 172.597656 274.804688 C 172.667969 275.585938 172.429688 276.363281 171.929688 276.964844 C 171.429688 277.566406 170.707031 277.945312 169.925781 278.019531 L 90.546875 285.425781 C 88.921875 285.578125 87.484375 284.386719 87.332031 282.761719 L 86.78125 276.882812 C 86.632812 275.261719 87.824219 273.820312 89.453125 273.667969 " fill-opacity="1" fill-rule="nonzero"/><g fill="#ffffff" fill-opacity="1"><g transform="translate(89.885644, 281.762933)"><g><path d="M 5.453125 -4.21875 L 4.859375 -0.453125 L 3.421875 -0.3125 L 2.703125 -2.484375 L 2.375 -0.21875 L 0.953125 -0.09375 L -0.328125 -3.671875 L 0.953125 -3.796875 L 1.59375 -1.40625 L 1.890625 -3.875 L 3.28125 -4.015625 L 4.078125 -1.625 L 4.25 -4.09375 Z M 5.453125 -4.21875 "/></g></g></g><g fill="#ffffff" fill-opacity="1"><g transform="translate(95.680378, 281.222175)"><g><path d="M 5.453125 -4.21875 L 4.859375 -0.453125 L 3.421875 -0.3125 L 2.703125 -2.484375 L 2.375 -0.21875 L 0.953125 -0.09375 L -0.328125 -3.671875 L 0.953125 -3.796875 L 1.59375 -1.40625 L 1.890625 -3.875 L 3.28125 -4.015625 L 4.078125 -1.625 L 4.25 -4.09375 Z M 5.453125 -4.21875 "/></g></g></g><g fill="#ffffff" fill-opacity="1"><g transform="translate(101.475111, 280.681417)"><g><path d="M 5.453125 -4.21875 L 4.859375 -0.453125 L 3.421875 -0.3125 L 2.703125 -2.484375 L 2.375 -0.21875 L 0.953125 -0.09375 L -0.328125 -3.671875 L 0.953125 -3.796875 L 1.59375 -1.40625 L 1.890625 -3.875 L 3.28125 -4.015625 L 4.078125 -1.625 L 4.25 -4.09375 Z M 5.453125 -4.21875 "/></g></g></g><g fill="#ffffff" fill-opacity="1"><g transform="translate(107.269845, 280.140659)"><g><path d="M 1 -0.046875 C 0.769531 -0.0234375 0.578125 -0.0664062 0.421875 -0.171875 C 0.273438 -0.285156 0.191406 -0.4375 0.171875 -0.625 C 0.160156 -0.820312 0.21875 -0.988281 0.34375 -1.125 C 0.46875 -1.269531 0.644531 -1.351562 0.875 -1.375 C 1.09375 -1.394531 1.28125 -1.347656 1.4375 -1.234375 C 1.59375 -1.117188 1.675781 -0.960938 1.6875 -0.765625 C 1.707031 -0.578125 1.648438 -0.414062 1.515625 -0.28125 C 1.390625 -0.144531 1.21875 -0.0664062 1 -0.046875 Z M 1 -0.046875 "/></g></g></g><g fill="#ffffff" fill-opacity="1"><g transform="translate(109.240708, 279.956741)"><g><path d="M 3.09375 -2.671875 C 3.363281 -2.640625 3.585938 -2.53125 3.765625 -2.34375 C 3.953125 -2.15625 4.054688 -1.925781 4.078125 -1.65625 C 4.117188 -1.257812 4.015625 -0.9375 3.765625 -0.6875 C 3.515625 -0.4375 3.144531 -0.289062 2.65625 -0.25 L 0.375 -0.03125 L -0.0625 -4.65625 L 2.140625 -4.859375 C 2.609375 -4.910156 2.988281 -4.835938 3.28125 -4.640625 C 3.570312 -4.453125 3.738281 -4.171875 3.78125 -3.796875 C 3.800781 -3.523438 3.75 -3.289062 3.625 -3.09375 C 3.5 -2.90625 3.320312 -2.765625 3.09375 -2.671875 Z M 1.390625 -2.9375 L 2.03125 -3 C 2.351562 -3.03125 2.503906 -3.179688 2.484375 -3.453125 C 2.460938 -3.722656 2.289062 -3.84375 1.96875 -3.8125 L 1.328125 -3.75 Z M 2.296875 -1.265625 C 2.617188 -1.296875 2.765625 -1.445312 2.734375 -1.71875 C 2.722656 -1.851562 2.671875 -1.953125 2.578125 -2.015625 C 2.492188 -2.078125 2.375 -2.097656 2.21875 -2.078125 L 1.484375 -2.015625 L 1.5625 -1.203125 Z M 2.296875 -1.265625 "/></g></g></g><g fill="#ffffff" fill-opacity="1"><g transform="translate(113.63423, 279.546742)"><g><path d="M 3.703125 -2.234375 C 3.710938 -2.140625 3.71875 -2.039062 3.71875 -1.9375 L 1.296875 -1.71875 C 1.316406 -1.519531 1.378906 -1.375 1.484375 -1.28125 C 1.597656 -1.1875 1.726562 -1.148438 1.875 -1.171875 C 2.082031 -1.191406 2.222656 -1.300781 2.296875 -1.5 L 3.671875 -1.640625 C 3.648438 -1.367188 3.5625 -1.125 3.40625 -0.90625 C 3.257812 -0.695312 3.066406 -0.523438 2.828125 -0.390625 C 2.585938 -0.253906 2.316406 -0.171875 2.015625 -0.140625 C 1.660156 -0.109375 1.332031 -0.15625 1.03125 -0.28125 C 0.738281 -0.414062 0.5 -0.613281 0.3125 -0.875 C 0.125 -1.144531 0.015625 -1.46875 -0.015625 -1.84375 C -0.046875 -2.226562 0 -2.570312 0.125 -2.875 C 0.25 -3.175781 0.445312 -3.414062 0.71875 -3.59375 C 1 -3.769531 1.316406 -3.875 1.671875 -3.90625 C 2.035156 -3.9375 2.363281 -3.890625 2.65625 -3.765625 C 2.945312 -3.648438 3.179688 -3.457031 3.359375 -3.1875 C 3.546875 -2.925781 3.660156 -2.609375 3.703125 -2.234375 Z M 2.359375 -2.421875 C 2.335938 -2.585938 2.269531 -2.707031 2.15625 -2.78125 C 2.050781 -2.863281 1.921875 -2.898438 1.765625 -2.890625 C 1.617188 -2.878906 1.492188 -2.820312 1.390625 -2.71875 C 1.296875 -2.625 1.242188 -2.492188 1.234375 -2.328125 Z M 2.359375 -2.421875 "/></g></g></g><g fill="#ffffff" fill-opacity="1"><g transform="translate(117.667628, 279.17035)"><g><path d="M -0.015625 -2.328125 C -0.0546875 -2.785156 0 -3.203125 0.15625 -3.578125 C 0.320312 -3.953125 0.566406 -4.253906 0.890625 -4.484375 C 1.210938 -4.722656 1.601562 -4.863281 2.0625 -4.90625 C 2.644531 -4.957031 3.148438 -4.84375 3.578125 -4.5625 C 4.003906 -4.289062 4.296875 -3.894531 4.453125 -3.375 L 3.0625 -3.25 C 2.96875 -3.414062 2.84375 -3.539062 2.6875 -3.625 C 2.53125 -3.707031 2.351562 -3.738281 2.15625 -3.71875 C 1.851562 -3.6875 1.625 -3.554688 1.46875 -3.328125 C 1.320312 -3.097656 1.265625 -2.804688 1.296875 -2.453125 C 1.328125 -2.109375 1.4375 -1.835938 1.625 -1.640625 C 1.820312 -1.441406 2.070312 -1.359375 2.375 -1.390625 C 2.570312 -1.410156 2.738281 -1.46875 2.875 -1.5625 C 3.019531 -1.664062 3.125 -1.8125 3.1875 -2 L 4.578125 -2.125 C 4.515625 -1.582031 4.296875 -1.140625 3.921875 -0.796875 C 3.554688 -0.453125 3.082031 -0.253906 2.5 -0.203125 C 2.039062 -0.160156 1.628906 -0.222656 1.265625 -0.390625 C 0.910156 -0.554688 0.617188 -0.804688 0.390625 -1.140625 C 0.160156 -1.484375 0.0234375 -1.878906 -0.015625 -2.328125 Z M -0.015625 -2.328125 "/></g></g></g><g fill="#ffffff" fill-opacity="1"><g transform="translate(122.630799, 278.707193)"><g><path d="M 2.0625 -0.140625 C 1.707031 -0.109375 1.375 -0.15625 1.0625 -0.28125 C 0.757812 -0.414062 0.507812 -0.613281 0.3125 -0.875 C 0.125 -1.144531 0.015625 -1.46875 -0.015625 -1.84375 C -0.046875 -2.226562 0.00390625 -2.570312 0.140625 -2.875 C 0.285156 -3.175781 0.5 -3.414062 0.78125 -3.59375 C 1.0625 -3.769531 1.378906 -3.875 1.734375 -3.90625 C 2.097656 -3.945312 2.429688 -3.90625 2.734375 -3.78125 C 3.035156 -3.65625 3.285156 -3.457031 3.484375 -3.1875 C 3.691406 -2.914062 3.8125 -2.585938 3.84375 -2.203125 C 3.875 -1.835938 3.816406 -1.503906 3.671875 -1.203125 C 3.523438 -0.898438 3.3125 -0.65625 3.03125 -0.46875 C 2.757812 -0.289062 2.4375 -0.179688 2.0625 -0.140625 Z M 1.96875 -1.265625 C 2.15625 -1.285156 2.300781 -1.363281 2.40625 -1.5 C 2.507812 -1.644531 2.550781 -1.835938 2.53125 -2.078125 C 2.507812 -2.328125 2.429688 -2.515625 2.296875 -2.640625 C 2.160156 -2.765625 2.003906 -2.816406 1.828125 -2.796875 C 1.648438 -2.785156 1.507812 -2.707031 1.40625 -2.5625 C 1.3125 -2.414062 1.273438 -2.21875 1.296875 -1.96875 C 1.316406 -1.726562 1.390625 -1.546875 1.515625 -1.421875 C 1.640625 -1.304688 1.789062 -1.253906 1.96875 -1.265625 Z M 1.96875 -1.265625 "/></g></g></g><g fill="#ffffff" fill-opacity="1"><g transform="translate(126.79515, 278.31858)"><g><path d="M -0.015625 -1.84375 C -0.046875 -2.226562 -0.0078125 -2.566406 0.09375 -2.859375 C 0.207031 -3.160156 0.378906 -3.398438 0.609375 -3.578125 C 0.835938 -3.753906 1.097656 -3.851562 1.390625 -3.875 C 1.617188 -3.894531 1.832031 -3.863281 2.03125 -3.78125 C 2.226562 -3.707031 2.382812 -3.59375 2.5 -3.4375 L 2.34375 -5.125 L 3.640625 -5.234375 L 4.09375 -0.375 L 2.796875 -0.265625 L 2.75 -0.78125 C 2.664062 -0.59375 2.535156 -0.441406 2.359375 -0.328125 C 2.179688 -0.210938 1.972656 -0.140625 1.734375 -0.109375 C 1.441406 -0.0859375 1.164062 -0.140625 0.90625 -0.265625 C 0.65625 -0.398438 0.445312 -0.601562 0.28125 -0.875 C 0.113281 -1.15625 0.015625 -1.476562 -0.015625 -1.84375 Z M 2.625 -2.09375 C 2.601562 -2.332031 2.519531 -2.507812 2.375 -2.625 C 2.226562 -2.75 2.0625 -2.804688 1.875 -2.796875 C 1.6875 -2.773438 1.535156 -2.691406 1.421875 -2.546875 C 1.316406 -2.398438 1.273438 -2.207031 1.296875 -1.96875 C 1.316406 -1.75 1.394531 -1.570312 1.53125 -1.4375 C 1.675781 -1.3125 1.84375 -1.257812 2.03125 -1.28125 C 2.21875 -1.289062 2.367188 -1.367188 2.484375 -1.515625 C 2.597656 -1.671875 2.644531 -1.863281 2.625 -2.09375 Z M 2.625 -2.09375 "/></g></g></g><g fill="#ffffff" fill-opacity="1"><g transform="translate(131.247602, 277.903083)"><g><path d="M 3.703125 -2.234375 C 3.710938 -2.140625 3.71875 -2.039062 3.71875 -1.9375 L 1.296875 -1.71875 C 1.316406 -1.519531 1.378906 -1.375 1.484375 -1.28125 C 1.597656 -1.1875 1.726562 -1.148438 1.875 -1.171875 C 2.082031 -1.191406 2.222656 -1.300781 2.296875 -1.5 L 3.671875 -1.640625 C 3.648438 -1.367188 3.5625 -1.125 3.40625 -0.90625 C 3.257812 -0.695312 3.066406 -0.523438 2.828125 -0.390625 C 2.585938 -0.253906 2.316406 -0.171875 2.015625 -0.140625 C 1.660156 -0.109375 1.332031 -0.15625 1.03125 -0.28125 C 0.738281 -0.414062 0.5 -0.613281 0.3125 -0.875 C 0.125 -1.144531 0.015625 -1.46875 -0.015625 -1.84375 C -0.046875 -2.226562 0 -2.570312 0.125 -2.875 C 0.25 -3.175781 0.445312 -3.414062 0.71875 -3.59375 C 1 -3.769531 1.316406 -3.875 1.671875 -3.90625 C 2.035156 -3.9375 2.363281 -3.890625 2.65625 -3.765625 C 2.945312 -3.648438 3.179688 -3.457031 3.359375 -3.1875 C 3.546875 -2.925781 3.660156 -2.609375 3.703125 -2.234375 Z M 2.359375 -2.421875 C 2.335938 -2.585938 2.269531 -2.707031 2.15625 -2.78125 C 2.050781 -2.863281 1.921875 -2.898438 1.765625 -2.890625 C 1.617188 -2.878906 1.492188 -2.820312 1.390625 -2.71875 C 1.296875 -2.625 1.242188 -2.492188 1.234375 -2.328125 Z M 2.359375 -2.421875 "/></g></g></g><g fill="#ffffff" fill-opacity="1"><g transform="translate(135.281, 277.526691)"><g><path d="M 2.9375 -3.09375 L 3.046875 -2.046875 L 0.078125 -1.765625 L -0.03125 -2.8125 Z M 2.9375 -3.09375 "/></g></g></g><g fill="#ffffff" fill-opacity="1"><g transform="translate(139.065584, 277.173518)"><g><path d="M 3.40625 -4.984375 L 3.515625 -3.953125 L 2.28125 -3.84375 L 2.609375 -0.25 L 1.328125 -0.125 L 1 -3.71875 L -0.21875 -3.609375 L -0.328125 -4.640625 Z M 3.40625 -4.984375 "/></g></g></g><g fill="#ffffff" fill-opacity="1"><g transform="translate(143.020407, 276.804458)"><g><path d="M -0.015625 -1.84375 C -0.046875 -2.226562 -0.0078125 -2.566406 0.09375 -2.859375 C 0.207031 -3.160156 0.378906 -3.398438 0.609375 -3.578125 C 0.835938 -3.753906 1.097656 -3.851562 1.390625 -3.875 C 1.628906 -3.90625 1.847656 -3.878906 2.046875 -3.796875 C 2.242188 -3.710938 2.394531 -3.585938 2.5 -3.421875 L 2.453125 -3.9375 L 3.75 -4.046875 L 4.09375 -0.375 L 2.796875 -0.265625 L 2.75 -0.78125 C 2.675781 -0.59375 2.546875 -0.441406 2.359375 -0.328125 C 2.179688 -0.210938 1.972656 -0.140625 1.734375 -0.109375 C 1.441406 -0.0859375 1.164062 -0.140625 0.90625 -0.265625 C 0.65625 -0.398438 0.445312 -0.601562 0.28125 -0.875 C 0.113281 -1.15625 0.015625 -1.476562 -0.015625 -1.84375 Z M 2.625 -2.09375 C 2.601562 -2.332031 2.519531 -2.507812 2.375 -2.625 C 2.226562 -2.75 2.0625 -2.804688 1.875 -2.796875 C 1.6875 -2.773438 1.535156 -2.691406 1.421875 -2.546875 C 1.316406 -2.398438 1.273438 -2.207031 1.296875 -1.96875 C 1.316406 -1.75 1.394531 -1.570312 1.53125 -1.4375 C 1.675781 -1.3125 1.84375 -1.257812 2.03125 -1.28125 C 2.21875 -1.289062 2.367188 -1.367188 2.484375 -1.515625 C 2.597656 -1.671875 2.644531 -1.863281 2.625 -2.09375 Z M 2.625 -2.09375 "/></g></g></g><g fill="#ffffff" fill-opacity="1"><g transform="translate(147.472859, 276.38896)"><g><path d="M -0.015625 -1.84375 C -0.046875 -2.226562 0 -2.570312 0.125 -2.875 C 0.25 -3.175781 0.445312 -3.414062 0.71875 -3.59375 C 1 -3.769531 1.316406 -3.875 1.671875 -3.90625 C 2.140625 -3.945312 2.539062 -3.851562 2.875 -3.625 C 3.21875 -3.40625 3.457031 -3.070312 3.59375 -2.625 L 2.21875 -2.5 C 2.125 -2.726562 1.960938 -2.832031 1.734375 -2.8125 C 1.578125 -2.789062 1.457031 -2.707031 1.375 -2.5625 C 1.300781 -2.425781 1.273438 -2.226562 1.296875 -1.96875 C 1.316406 -1.71875 1.378906 -1.523438 1.484375 -1.390625 C 1.597656 -1.265625 1.734375 -1.210938 1.890625 -1.234375 C 2.117188 -1.253906 2.257812 -1.394531 2.3125 -1.65625 L 3.6875 -1.78125 C 3.632812 -1.3125 3.457031 -0.929688 3.15625 -0.640625 C 2.863281 -0.347656 2.484375 -0.179688 2.015625 -0.140625 C 1.660156 -0.109375 1.332031 -0.15625 1.03125 -0.28125 C 0.726562 -0.414062 0.484375 -0.613281 0.296875 -0.875 C 0.117188 -1.144531 0.015625 -1.46875 -0.015625 -1.84375 Z M -0.015625 -1.84375 "/></g></g></g><g fill="#ffffff" fill-opacity="1"><g transform="translate(151.447327, 276.018068)"><g><path d="M 2.0625 -0.140625 C 1.707031 -0.109375 1.375 -0.15625 1.0625 -0.28125 C 0.757812 -0.414062 0.507812 -0.613281 0.3125 -0.875 C 0.125 -1.144531 0.015625 -1.46875 -0.015625 -1.84375 C -0.046875 -2.226562 0.00390625 -2.570312 0.140625 -2.875 C 0.285156 -3.175781 0.5 -3.414062 0.78125 -3.59375 C 1.0625 -3.769531 1.378906 -3.875 1.734375 -3.90625 C 2.097656 -3.945312 2.429688 -3.90625 2.734375 -3.78125 C 3.035156 -3.65625 3.285156 -3.457031 3.484375 -3.1875 C 3.691406 -2.914062 3.8125 -2.585938 3.84375 -2.203125 C 3.875 -1.835938 3.816406 -1.503906 3.671875 -1.203125 C 3.523438 -0.898438 3.3125 -0.65625 3.03125 -0.46875 C 2.757812 -0.289062 2.4375 -0.179688 2.0625 -0.140625 Z M 1.96875 -1.265625 C 2.15625 -1.285156 2.300781 -1.363281 2.40625 -1.5 C 2.507812 -1.644531 2.550781 -1.835938 2.53125 -2.078125 C 2.507812 -2.328125 2.429688 -2.515625 2.296875 -2.640625 C 2.160156 -2.765625 2.003906 -2.816406 1.828125 -2.796875 C 1.648438 -2.785156 1.507812 -2.707031 1.40625 -2.5625 C 1.3125 -2.414062 1.273438 -2.21875 1.296875 -1.96875 C 1.316406 -1.726562 1.390625 -1.546875 1.515625 -1.421875 C 1.640625 -1.304688 1.789062 -1.253906 1.96875 -1.265625 Z M 1.96875 -1.265625 "/></g></g></g><g fill="#ffffff" fill-opacity="1"><g transform="translate(155.611677, 275.629455)"><g><path d="M 1.921875 -0.140625 C 1.597656 -0.109375 1.300781 -0.132812 1.03125 -0.21875 C 0.757812 -0.3125 0.539062 -0.445312 0.375 -0.625 C 0.207031 -0.800781 0.101562 -1.015625 0.0625 -1.265625 L 1.3125 -1.375 C 1.34375 -1.257812 1.40625 -1.171875 1.5 -1.109375 C 1.601562 -1.054688 1.71875 -1.039062 1.84375 -1.0625 C 1.945312 -1.0625 2.023438 -1.085938 2.078125 -1.140625 C 2.140625 -1.191406 2.164062 -1.253906 2.15625 -1.328125 C 2.15625 -1.421875 2.097656 -1.484375 1.984375 -1.515625 C 1.878906 -1.546875 1.710938 -1.578125 1.484375 -1.609375 C 1.222656 -1.628906 1 -1.664062 0.8125 -1.71875 C 0.632812 -1.769531 0.472656 -1.859375 0.328125 -1.984375 C 0.179688 -2.117188 0.0976562 -2.316406 0.078125 -2.578125 C 0.0546875 -2.796875 0.0976562 -3 0.203125 -3.1875 C 0.304688 -3.375 0.46875 -3.53125 0.6875 -3.65625 C 0.90625 -3.78125 1.171875 -3.859375 1.484375 -3.890625 C 1.972656 -3.929688 2.363281 -3.847656 2.65625 -3.640625 C 2.957031 -3.429688 3.144531 -3.140625 3.21875 -2.765625 L 2.046875 -2.65625 C 2.015625 -2.757812 1.957031 -2.835938 1.875 -2.890625 C 1.789062 -2.953125 1.679688 -2.976562 1.546875 -2.96875 C 1.453125 -2.957031 1.378906 -2.929688 1.328125 -2.890625 C 1.273438 -2.847656 1.253906 -2.789062 1.265625 -2.71875 C 1.265625 -2.625 1.316406 -2.5625 1.421875 -2.53125 C 1.523438 -2.5 1.691406 -2.46875 1.921875 -2.4375 C 2.191406 -2.40625 2.414062 -2.359375 2.59375 -2.296875 C 2.78125 -2.242188 2.945312 -2.148438 3.09375 -2.015625 C 3.238281 -1.878906 3.328125 -1.675781 3.359375 -1.40625 C 3.367188 -1.195312 3.320312 -1 3.21875 -0.8125 C 3.113281 -0.625 2.945312 -0.46875 2.71875 -0.34375 C 2.5 -0.226562 2.234375 -0.160156 1.921875 -0.140625 Z M 1.921875 -0.140625 "/></g></g></g><g fill="#ffffff" fill-opacity="1"><g transform="translate(159.330785, 275.282392)"><g><path d="M 1 -0.046875 C 0.769531 -0.0234375 0.578125 -0.0664062 0.421875 -0.171875 C 0.273438 -0.285156 0.191406 -0.4375 0.171875 -0.625 C 0.160156 -0.820312 0.21875 -0.988281 0.34375 -1.125 C 0.46875 -1.269531 0.644531 -1.351562 0.875 -1.375 C 1.09375 -1.394531 1.28125 -1.347656 1.4375 -1.234375 C 1.59375 -1.117188 1.675781 -0.960938 1.6875 -0.765625 C 1.707031 -0.578125 1.648438 -0.414062 1.515625 -0.28125 C 1.390625 -0.144531 1.21875 -0.0664062 1 -0.046875 Z M 1 -0.046875 "/></g></g></g><g fill="#ffffff" fill-opacity="1"><g transform="translate(161.301648, 275.098474)"><g><path d="M 1.359375 -3.3125 C 1.441406 -3.5 1.566406 -3.648438 1.734375 -3.765625 C 1.910156 -3.878906 2.125 -3.945312 2.375 -3.96875 C 2.664062 -4 2.9375 -3.945312 3.1875 -3.8125 C 3.4375 -3.6875 3.644531 -3.488281 3.8125 -3.21875 C 3.988281 -2.945312 4.09375 -2.617188 4.125 -2.234375 C 4.15625 -1.867188 4.113281 -1.535156 4 -1.234375 C 3.882812 -0.929688 3.710938 -0.691406 3.484375 -0.515625 C 3.265625 -0.335938 3.007812 -0.234375 2.71875 -0.203125 C 2.46875 -0.179688 2.25 -0.210938 2.0625 -0.296875 C 1.875 -0.378906 1.722656 -0.503906 1.609375 -0.671875 L 1.65625 -0.15625 L 0.375 -0.03125 L -0.078125 -4.890625 L 1.203125 -5.015625 Z M 2.8125 -2.109375 C 2.789062 -2.347656 2.707031 -2.53125 2.5625 -2.65625 C 2.414062 -2.78125 2.25 -2.832031 2.0625 -2.8125 C 1.875 -2.789062 1.722656 -2.707031 1.609375 -2.5625 C 1.503906 -2.414062 1.460938 -2.222656 1.484375 -1.984375 C 1.503906 -1.753906 1.582031 -1.578125 1.71875 -1.453125 C 1.863281 -1.328125 2.03125 -1.273438 2.21875 -1.296875 C 2.40625 -1.316406 2.554688 -1.398438 2.671875 -1.546875 C 2.785156 -1.703125 2.832031 -1.890625 2.8125 -2.109375 Z M 2.8125 -2.109375 "/></g></g></g><g fill="#ffffff" fill-opacity="1"><g transform="translate(165.7541, 274.682976)"><g><path d="M 3.703125 -2.234375 C 3.710938 -2.140625 3.71875 -2.039062 3.71875 -1.9375 L 1.296875 -1.71875 C 1.316406 -1.519531 1.378906 -1.375 1.484375 -1.28125 C 1.597656 -1.1875 1.726562 -1.148438 1.875 -1.171875 C 2.082031 -1.191406 2.222656 -1.300781 2.296875 -1.5 L 3.671875 -1.640625 C 3.648438 -1.367188 3.5625 -1.125 3.40625 -0.90625 C 3.257812 -0.695312 3.066406 -0.523438 2.828125 -0.390625 C 2.585938 -0.253906 2.316406 -0.171875 2.015625 -0.140625 C 1.660156 -0.109375 1.332031 -0.15625 1.03125 -0.28125 C 0.738281 -0.414062 0.5 -0.613281 0.3125 -0.875 C 0.125 -1.144531 0.015625 -1.46875 -0.015625 -1.84375 C -0.046875 -2.226562 0 -2.570312 0.125 -2.875 C 0.25 -3.175781 0.445312 -3.414062 0.71875 -3.59375 C 1 -3.769531 1.316406 -3.875 1.671875 -3.90625 C 2.035156 -3.9375 2.363281 -3.890625 2.65625 -3.765625 C 2.945312 -3.648438 3.179688 -3.457031 3.359375 -3.1875 C 3.546875 -2.925781 3.660156 -2.609375 3.703125 -2.234375 Z M 2.359375 -2.421875 C 2.335938 -2.585938 2.269531 -2.707031 2.15625 -2.78125 C 2.050781 -2.863281 1.921875 -2.898438 1.765625 -2.890625 C 1.617188 -2.878906 1.492188 -2.820312 1.390625 -2.71875 C 1.296875 -2.625 1.242188 -2.492188 1.234375 -2.328125 Z M 2.359375 -2.421875 "/></g></g></g></svg>